<mxfile host="app.diagrams.net" modified="2023-05-16T14:22:43.975Z" agent="Mozilla/5.0 (Windows NT 10.0; Win64; x64) AppleWebKit/537.36 (KHTML, like Gecko) Chrome/113.0.0.0 Safari/537.36" etag="9XbXH8WVTcSYf1H9vJV4" version="21.3.2" type="device" pages="5">
  <diagram id="3D5VY4odDj0KX1BlijAC" name="AST">
    <mxGraphModel dx="1562" dy="837" grid="1" gridSize="10" guides="1" tooltips="1" connect="1" arrows="1" fold="1" page="1" pageScale="1" pageWidth="827" pageHeight="1169" math="0" shadow="0">
      <root>
        <mxCell id="0" />
        <mxCell id="1" parent="0" />
        <mxCell id="8seQ3-NWnmx3zOrSfs5I-14" value="Use" style="endArrow=open;endSize=12;dashed=1;html=1;rounded=0;exitX=1;exitY=0.5;exitDx=0;exitDy=0;entryX=0;entryY=0.5;entryDx=0;entryDy=0;" parent="1" source="8seQ3-NWnmx3zOrSfs5I-12" target="8seQ3-NWnmx3zOrSfs5I-13" edge="1">
          <mxGeometry x="-1" y="16" width="160" relative="1" as="geometry">
            <mxPoint x="323" y="240" as="sourcePoint" />
            <mxPoint x="483" y="240" as="targetPoint" />
            <Array as="points" />
            <mxPoint x="-13" y="6" as="offset" />
          </mxGeometry>
        </mxCell>
        <mxCell id="8seQ3-NWnmx3zOrSfs5I-26" value="1" style="edgeLabel;html=1;align=center;verticalAlign=middle;resizable=0;points=[];" parent="8seQ3-NWnmx3zOrSfs5I-14" vertex="1" connectable="0">
          <mxGeometry x="0.5627" y="2" relative="1" as="geometry">
            <mxPoint y="-8" as="offset" />
          </mxGeometry>
        </mxCell>
        <mxCell id="8seQ3-NWnmx3zOrSfs5I-1" value="VarDefinition" style="swimlane;fontStyle=1;align=center;verticalAlign=top;childLayout=stackLayout;horizontal=1;startSize=26;horizontalStack=0;resizeParent=1;resizeParentMax=0;resizeLast=0;collapsible=1;marginBottom=0;" parent="1" vertex="1">
          <mxGeometry x="448" y="420" width="160" height="52" as="geometry" />
        </mxCell>
        <mxCell id="8seQ3-NWnmx3zOrSfs5I-2" value="offset: int" style="text;strokeColor=none;fillColor=none;align=left;verticalAlign=top;spacingLeft=4;spacingRight=4;overflow=hidden;rotatable=0;points=[[0,0.5],[1,0.5]];portConstraint=eastwest;" parent="8seQ3-NWnmx3zOrSfs5I-1" vertex="1">
          <mxGeometry y="26" width="160" height="26" as="geometry" />
        </mxCell>
        <mxCell id="8seQ3-NWnmx3zOrSfs5I-6" value="&lt;div style=&quot;text-align: center;&quot;&gt;&lt;span style=&quot;background-color: initial;&quot;&gt;«&lt;/span&gt;&lt;i style=&quot;background-color: initial; text-align: center;&quot;&gt;Interface&lt;/i&gt;&lt;span style=&quot;background-color: initial; text-align: center;&quot;&gt;»&lt;/span&gt;&lt;/div&gt;&lt;div style=&quot;text-align: center;&quot;&gt;&lt;b style=&quot;background-color: initial;&quot;&gt;ASTNode&lt;/b&gt;&lt;/div&gt;&lt;hr size=&quot;1&quot;&gt;&lt;p style=&quot;margin:0px;margin-left:4px;&quot;&gt;getLine(): int&lt;/p&gt;&lt;p style=&quot;margin:0px;margin-left:4px;&quot;&gt;getColumn(): int&lt;/p&gt;&lt;p style=&quot;margin:0px;margin-left:4px;&quot;&gt;accept(Visitor&amp;lt;PT,RT&amp;gt; v, PT p): RT&lt;br&gt;&lt;/p&gt;" style="verticalAlign=top;align=left;overflow=fill;fontSize=12;fontFamily=Helvetica;html=1;" parent="1" vertex="1">
          <mxGeometry x="173" y="80" width="190" height="90" as="geometry" />
        </mxCell>
        <mxCell id="8seQ3-NWnmx3zOrSfs5I-8" value="Program" style="swimlane;fontStyle=0;childLayout=stackLayout;horizontal=1;startSize=26;fillColor=none;horizontalStack=0;resizeParent=1;resizeParentMax=0;resizeLast=0;collapsible=1;marginBottom=0;" parent="1" vertex="1">
          <mxGeometry x="433" y="110" width="140" height="30" as="geometry" />
        </mxCell>
        <mxCell id="8seQ3-NWnmx3zOrSfs5I-12" value="&lt;div style=&quot;text-align: center;&quot;&gt;&lt;span style=&quot;background-color: initial;&quot;&gt;«&lt;/span&gt;&lt;i style=&quot;background-color: initial;&quot;&gt;Interface&lt;/i&gt;&lt;span style=&quot;background-color: initial;&quot;&gt;»&lt;/span&gt;&lt;/div&gt;&lt;div style=&quot;text-align: center;&quot;&gt;&lt;b style=&quot;background-color: initial;&quot;&gt;Definition&lt;/b&gt;&lt;/div&gt;&lt;hr size=&quot;1&quot;&gt;&lt;p style=&quot;margin:0px;margin-left:4px;&quot;&gt;getType(): Type&lt;/p&gt;&lt;p style=&quot;margin:0px;margin-left:4px;&quot;&gt;getName(): String&lt;/p&gt;&lt;p style=&quot;margin:0px;margin-left:4px;&quot;&gt;getScope(): int&lt;/p&gt;&lt;p style=&quot;margin:0px;margin-left:4px;&quot;&gt;setScope(int)&lt;/p&gt;" style="verticalAlign=top;align=left;overflow=fill;fontSize=12;fontFamily=Helvetica;html=1;" parent="1" vertex="1">
          <mxGeometry x="408" y="200" width="190" height="100" as="geometry" />
        </mxCell>
        <mxCell id="8seQ3-NWnmx3zOrSfs5I-13" value="«interface»&lt;br&gt;&lt;b&gt;Type&lt;/b&gt;" style="html=1;" parent="1" vertex="1">
          <mxGeometry x="693" y="225" width="110" height="50" as="geometry" />
        </mxCell>
        <mxCell id="8seQ3-NWnmx3zOrSfs5I-16" value="FuncDefinition" style="swimlane;fontStyle=0;childLayout=stackLayout;horizontal=1;startSize=26;fillColor=none;horizontalStack=0;resizeParent=1;resizeParentMax=0;resizeLast=0;collapsible=1;marginBottom=0;" parent="1" vertex="1">
          <mxGeometry x="293" y="330" width="140" height="30" as="geometry" />
        </mxCell>
        <mxCell id="8seQ3-NWnmx3zOrSfs5I-20" value="«interface»&lt;br&gt;&lt;b&gt;Statement&lt;/b&gt;" style="html=1;" parent="1" vertex="1">
          <mxGeometry x="73" y="250" width="110" height="50" as="geometry" />
        </mxCell>
        <mxCell id="8seQ3-NWnmx3zOrSfs5I-21" value="" style="endArrow=block;dashed=1;endFill=0;endSize=12;html=1;rounded=0;exitX=0.5;exitY=0;exitDx=0;exitDy=0;entryX=0.5;entryY=1;entryDx=0;entryDy=0;" parent="1" source="8seQ3-NWnmx3zOrSfs5I-20" target="8seQ3-NWnmx3zOrSfs5I-6" edge="1">
          <mxGeometry width="160" relative="1" as="geometry">
            <mxPoint x="413" y="290" as="sourcePoint" />
            <mxPoint x="573" y="290" as="targetPoint" />
            <Array as="points">
              <mxPoint x="128" y="200" />
              <mxPoint x="268" y="200" />
            </Array>
          </mxGeometry>
        </mxCell>
        <mxCell id="8seQ3-NWnmx3zOrSfs5I-22" value="" style="endArrow=block;dashed=1;endFill=0;endSize=12;html=1;rounded=0;exitX=0.5;exitY=0;exitDx=0;exitDy=0;entryX=0.5;entryY=0;entryDx=0;entryDy=0;" parent="1" source="8seQ3-NWnmx3zOrSfs5I-13" target="8seQ3-NWnmx3zOrSfs5I-6" edge="1">
          <mxGeometry width="160" relative="1" as="geometry">
            <mxPoint x="413" y="210" as="sourcePoint" />
            <mxPoint x="573" y="210" as="targetPoint" />
            <Array as="points">
              <mxPoint x="748" y="40" />
              <mxPoint x="268" y="40" />
            </Array>
          </mxGeometry>
        </mxCell>
        <mxCell id="8seQ3-NWnmx3zOrSfs5I-23" value="" style="endArrow=block;dashed=1;endFill=0;endSize=12;html=1;rounded=0;exitX=0;exitY=0.5;exitDx=0;exitDy=0;" parent="1" source="8seQ3-NWnmx3zOrSfs5I-8" edge="1">
          <mxGeometry width="160" relative="1" as="geometry">
            <mxPoint x="405" y="220" as="sourcePoint" />
            <mxPoint x="360" y="125" as="targetPoint" />
          </mxGeometry>
        </mxCell>
        <mxCell id="8seQ3-NWnmx3zOrSfs5I-24" value="" style="endArrow=diamondThin;endFill=0;endSize=24;html=1;rounded=0;entryX=0.5;entryY=1;entryDx=0;entryDy=0;exitX=0.5;exitY=0;exitDx=0;exitDy=0;" parent="1" source="8seQ3-NWnmx3zOrSfs5I-12" target="8seQ3-NWnmx3zOrSfs5I-8" edge="1">
          <mxGeometry width="160" relative="1" as="geometry">
            <mxPoint x="405" y="220" as="sourcePoint" />
            <mxPoint x="565" y="220" as="targetPoint" />
          </mxGeometry>
        </mxCell>
        <mxCell id="8seQ3-NWnmx3zOrSfs5I-25" value="*" style="edgeLabel;html=1;align=center;verticalAlign=middle;resizable=0;points=[];" parent="8seQ3-NWnmx3zOrSfs5I-24" vertex="1" connectable="0">
          <mxGeometry x="-0.6603" y="1" relative="1" as="geometry">
            <mxPoint x="7" as="offset" />
          </mxGeometry>
        </mxCell>
        <mxCell id="8seQ3-NWnmx3zOrSfs5I-27" value="" style="endArrow=diamondThin;endFill=0;endSize=24;html=1;rounded=0;exitX=1;exitY=0.5;exitDx=0;exitDy=0;entryX=0;entryY=0.5;entryDx=0;entryDy=0;" parent="1" source="8seQ3-NWnmx3zOrSfs5I-20" target="8seQ3-NWnmx3zOrSfs5I-16" edge="1">
          <mxGeometry width="160" relative="1" as="geometry">
            <mxPoint x="335" y="260" as="sourcePoint" />
            <mxPoint x="495" y="260" as="targetPoint" />
            <Array as="points">
              <mxPoint x="225" y="275" />
              <mxPoint x="225" y="345" />
            </Array>
          </mxGeometry>
        </mxCell>
        <mxCell id="8seQ3-NWnmx3zOrSfs5I-28" value="*" style="edgeLabel;html=1;align=center;verticalAlign=middle;resizable=0;points=[];" parent="8seQ3-NWnmx3zOrSfs5I-27" vertex="1" connectable="0">
          <mxGeometry x="-0.8698" y="-1" relative="1" as="geometry">
            <mxPoint x="-3" y="8" as="offset" />
          </mxGeometry>
        </mxCell>
        <mxCell id="fLKJYrSuVNq2wovVQw6R-2" value="Statements" style="edgeLabel;html=1;align=center;verticalAlign=middle;resizable=0;points=[];" parent="8seQ3-NWnmx3zOrSfs5I-27" vertex="1" connectable="0">
          <mxGeometry x="-0.0019" y="1" relative="1" as="geometry">
            <mxPoint x="4" y="37" as="offset" />
          </mxGeometry>
        </mxCell>
        <mxCell id="8seQ3-NWnmx3zOrSfs5I-29" value="" style="endArrow=block;dashed=1;endFill=0;endSize=12;html=1;rounded=0;exitX=1;exitY=0.5;exitDx=0;exitDy=0;entryX=0.5;entryY=1;entryDx=0;entryDy=0;" parent="1" source="8seQ3-NWnmx3zOrSfs5I-16" target="8seQ3-NWnmx3zOrSfs5I-12" edge="1">
          <mxGeometry width="160" relative="1" as="geometry">
            <mxPoint x="315" y="300" as="sourcePoint" />
            <mxPoint x="490" y="310" as="targetPoint" />
            <Array as="points">
              <mxPoint x="503" y="345" />
            </Array>
          </mxGeometry>
        </mxCell>
        <mxCell id="8seQ3-NWnmx3zOrSfs5I-31" value="" style="endArrow=block;dashed=1;endFill=0;endSize=12;html=1;rounded=0;exitX=0.5;exitY=0;exitDx=0;exitDy=0;entryX=0.5;entryY=1;entryDx=0;entryDy=0;" parent="1" source="8seQ3-NWnmx3zOrSfs5I-1" target="8seQ3-NWnmx3zOrSfs5I-12" edge="1">
          <mxGeometry width="160" relative="1" as="geometry">
            <mxPoint x="433" y="345" as="sourcePoint" />
            <mxPoint x="530" y="320" as="targetPoint" />
            <Array as="points">
              <mxPoint x="528" y="345" />
              <mxPoint x="503" y="345" />
            </Array>
          </mxGeometry>
        </mxCell>
        <mxCell id="5ctbdwMjqHixd4IKqhLu-1" value="«interface»&lt;br&gt;&lt;b&gt;Expression&lt;/b&gt;" style="html=1;" parent="1" vertex="1">
          <mxGeometry x="25" y="140" width="110" height="50" as="geometry" />
        </mxCell>
        <mxCell id="5ctbdwMjqHixd4IKqhLu-2" value="" style="endArrow=block;dashed=1;endFill=0;endSize=12;html=1;rounded=0;exitX=0.5;exitY=0;exitDx=0;exitDy=0;entryX=0;entryY=0.25;entryDx=0;entryDy=0;" parent="1" source="5ctbdwMjqHixd4IKqhLu-1" target="8seQ3-NWnmx3zOrSfs5I-6" edge="1">
          <mxGeometry width="160" relative="1" as="geometry">
            <mxPoint x="75" y="90" as="sourcePoint" />
            <mxPoint x="235" y="90" as="targetPoint" />
            <Array as="points">
              <mxPoint x="80" y="103" />
            </Array>
          </mxGeometry>
        </mxCell>
        <mxCell id="uUw6qVlAJl0U831meQ9u-1" value="" style="endArrow=block;dashed=1;endFill=0;endSize=12;html=1;rounded=0;entryX=0.5;entryY=1;entryDx=0;entryDy=0;exitX=0;exitY=0.25;exitDx=0;exitDy=0;" parent="1" source="8seQ3-NWnmx3zOrSfs5I-12" target="8seQ3-NWnmx3zOrSfs5I-6" edge="1">
          <mxGeometry width="160" relative="1" as="geometry">
            <mxPoint x="260" y="250" as="sourcePoint" />
            <mxPoint x="420" y="250" as="targetPoint" />
            <Array as="points">
              <mxPoint x="268" y="225" />
            </Array>
          </mxGeometry>
        </mxCell>
        <mxCell id="IPL5jD2GHE1Af6yotjXV-1" value="" style="endArrow=diamondThin;endFill=0;endSize=24;html=1;rounded=0;entryX=0.5;entryY=1;entryDx=0;entryDy=0;exitX=0.25;exitY=0;exitDx=0;exitDy=0;" parent="1" source="8seQ3-NWnmx3zOrSfs5I-1" target="8seQ3-NWnmx3zOrSfs5I-16" edge="1">
          <mxGeometry width="160" relative="1" as="geometry">
            <mxPoint x="250" y="450" as="sourcePoint" />
            <mxPoint x="410" y="450" as="targetPoint" />
            <Array as="points">
              <mxPoint x="488" y="400" />
              <mxPoint x="363" y="400" />
            </Array>
          </mxGeometry>
        </mxCell>
        <mxCell id="IPL5jD2GHE1Af6yotjXV-2" value="*" style="edgeLabel;html=1;align=center;verticalAlign=middle;resizable=0;points=[];" parent="IPL5jD2GHE1Af6yotjXV-1" vertex="1" connectable="0">
          <mxGeometry x="-0.9308" y="-1" relative="1" as="geometry">
            <mxPoint x="6" y="-5" as="offset" />
          </mxGeometry>
        </mxCell>
        <mxCell id="fLKJYrSuVNq2wovVQw6R-1" value="Definitions" style="edgeLabel;html=1;align=center;verticalAlign=middle;resizable=0;points=[];" parent="IPL5jD2GHE1Af6yotjXV-1" vertex="1" connectable="0">
          <mxGeometry x="0.009" y="1" relative="1" as="geometry">
            <mxPoint x="-25" y="9" as="offset" />
          </mxGeometry>
        </mxCell>
        <mxCell id="Yi-COFGtNeNWcuxYkVZY-1" value="SymbolTable" style="swimlane;fontStyle=0;childLayout=stackLayout;horizontal=1;startSize=26;fillColor=none;horizontalStack=0;resizeParent=1;resizeParentMax=0;resizeLast=0;collapsible=1;marginBottom=0;whiteSpace=wrap;html=1;" parent="1" vertex="1">
          <mxGeometry x="630" y="360" width="190" height="164" as="geometry" />
        </mxCell>
        <mxCell id="Yi-COFGtNeNWcuxYkVZY-2" value="table:List&amp;lt;Map&amp;lt;String,Defnition&amp;gt;&amp;gt;&lt;br&gt;" style="text;strokeColor=none;fillColor=none;align=left;verticalAlign=top;spacingLeft=4;spacingRight=4;overflow=hidden;rotatable=0;points=[[0,0.5],[1,0.5]];portConstraint=eastwest;whiteSpace=wrap;html=1;" parent="Yi-COFGtNeNWcuxYkVZY-1" vertex="1">
          <mxGeometry y="26" width="190" height="26" as="geometry" />
        </mxCell>
        <mxCell id="Yi-COFGtNeNWcuxYkVZY-7" value="" style="line;strokeWidth=1;fillColor=none;align=left;verticalAlign=middle;spacingTop=-1;spacingLeft=3;spacingRight=3;rotatable=0;labelPosition=right;points=[];portConstraint=eastwest;strokeColor=inherit;" parent="Yi-COFGtNeNWcuxYkVZY-1" vertex="1">
          <mxGeometry y="52" width="190" height="8" as="geometry" />
        </mxCell>
        <mxCell id="Yi-COFGtNeNWcuxYkVZY-3" value="insert(Definition):bool" style="text;strokeColor=none;fillColor=none;align=left;verticalAlign=top;spacingLeft=4;spacingRight=4;overflow=hidden;rotatable=0;points=[[0,0.5],[1,0.5]];portConstraint=eastwest;whiteSpace=wrap;html=1;" parent="Yi-COFGtNeNWcuxYkVZY-1" vertex="1">
          <mxGeometry y="60" width="190" height="26" as="geometry" />
        </mxCell>
        <mxCell id="Yi-COFGtNeNWcuxYkVZY-4" value="find(String):Definition" style="text;strokeColor=none;fillColor=none;align=left;verticalAlign=top;spacingLeft=4;spacingRight=4;overflow=hidden;rotatable=0;points=[[0,0.5],[1,0.5]];portConstraint=eastwest;whiteSpace=wrap;html=1;" parent="Yi-COFGtNeNWcuxYkVZY-1" vertex="1">
          <mxGeometry y="86" width="190" height="26" as="geometry" />
        </mxCell>
        <mxCell id="Yi-COFGtNeNWcuxYkVZY-5" value="set()" style="text;strokeColor=none;fillColor=none;align=left;verticalAlign=top;spacingLeft=4;spacingRight=4;overflow=hidden;rotatable=0;points=[[0,0.5],[1,0.5]];portConstraint=eastwest;whiteSpace=wrap;html=1;" parent="Yi-COFGtNeNWcuxYkVZY-1" vertex="1">
          <mxGeometry y="112" width="190" height="26" as="geometry" />
        </mxCell>
        <mxCell id="Yi-COFGtNeNWcuxYkVZY-6" value="reset()" style="text;strokeColor=none;fillColor=none;align=left;verticalAlign=top;spacingLeft=4;spacingRight=4;overflow=hidden;rotatable=0;points=[[0,0.5],[1,0.5]];portConstraint=eastwest;whiteSpace=wrap;html=1;" parent="Yi-COFGtNeNWcuxYkVZY-1" vertex="1">
          <mxGeometry y="138" width="190" height="26" as="geometry" />
        </mxCell>
        <mxCell id="Yi-COFGtNeNWcuxYkVZY-8" value="name" style="endArrow=block;endFill=1;html=1;edgeStyle=orthogonalEdgeStyle;align=left;verticalAlign=top;rounded=0;entryX=0.75;entryY=1;entryDx=0;entryDy=0;exitX=0.5;exitY=0;exitDx=0;exitDy=0;" parent="1" source="Yi-COFGtNeNWcuxYkVZY-1" target="8seQ3-NWnmx3zOrSfs5I-12" edge="1">
          <mxGeometry x="-0.4106" y="10" relative="1" as="geometry">
            <mxPoint x="640" y="310" as="sourcePoint" />
            <mxPoint x="730" y="360" as="targetPoint" />
            <mxPoint as="offset" />
          </mxGeometry>
        </mxCell>
        <mxCell id="Yi-COFGtNeNWcuxYkVZY-9" value="1" style="edgeLabel;resizable=0;html=1;align=left;verticalAlign=bottom;" parent="Yi-COFGtNeNWcuxYkVZY-8" connectable="0" vertex="1">
          <mxGeometry x="-1" relative="1" as="geometry">
            <mxPoint x="3" y="-8" as="offset" />
          </mxGeometry>
        </mxCell>
      </root>
    </mxGraphModel>
  </diagram>
  <diagram id="UGOGlBXoPM8OidsNIMe1" name="Sentencias">
    <mxGraphModel dx="1562" dy="837" grid="1" gridSize="10" guides="1" tooltips="1" connect="1" arrows="1" fold="1" page="1" pageScale="1" pageWidth="827" pageHeight="1169" math="0" shadow="0">
      <root>
        <mxCell id="0" />
        <mxCell id="1" parent="0" />
        <mxCell id="krJR6k9mLciAH31oZKHc-1" value="«interface»&lt;br&gt;&lt;b&gt;Statement&lt;br&gt;&lt;/b&gt;" style="html=1;" parent="1" vertex="1">
          <mxGeometry x="470" y="30" width="110" height="50" as="geometry" />
        </mxCell>
        <mxCell id="qxFiza6Zk3G1IHZCG_po-1" value="Print" style="swimlane;fontStyle=0;childLayout=stackLayout;horizontal=1;startSize=26;fillColor=none;horizontalStack=0;resizeParent=1;resizeParentMax=0;resizeLast=0;collapsible=1;marginBottom=0;" parent="1" vertex="1">
          <mxGeometry x="10" y="260" width="140" height="30" as="geometry" />
        </mxCell>
        <mxCell id="ONvNdnsmpPbUrXH8ia57-1" value="«interface»&lt;br&gt;&lt;b&gt;Expression&lt;/b&gt;" style="html=1;" parent="1" vertex="1">
          <mxGeometry x="304" y="30" width="110" height="50" as="geometry" />
        </mxCell>
        <mxCell id="ONvNdnsmpPbUrXH8ia57-2" value="Input" style="swimlane;fontStyle=0;childLayout=stackLayout;horizontal=1;startSize=26;fillColor=none;horizontalStack=0;resizeParent=1;resizeParentMax=0;resizeLast=0;collapsible=1;marginBottom=0;" parent="1" vertex="1">
          <mxGeometry x="130" y="341" width="140" height="30" as="geometry" />
        </mxCell>
        <mxCell id="ONvNdnsmpPbUrXH8ia57-3" value="Assignment" style="swimlane;fontStyle=0;childLayout=stackLayout;horizontal=1;startSize=26;fillColor=none;horizontalStack=0;resizeParent=1;resizeParentMax=0;resizeLast=0;collapsible=1;marginBottom=0;" parent="1" vertex="1">
          <mxGeometry x="250" y="260" width="140" height="30" as="geometry" />
        </mxCell>
        <mxCell id="ONvNdnsmpPbUrXH8ia57-7" value="IfElse" style="swimlane;fontStyle=0;childLayout=stackLayout;horizontal=1;startSize=20;fillColor=none;horizontalStack=0;resizeParent=1;resizeParentMax=0;resizeLast=0;collapsible=1;marginBottom=0;" parent="1" vertex="1">
          <mxGeometry x="370" y="341" width="140" height="29" as="geometry" />
        </mxCell>
        <mxCell id="ONvNdnsmpPbUrXH8ia57-11" value="While" style="swimlane;fontStyle=0;childLayout=stackLayout;horizontal=1;startSize=26;fillColor=none;horizontalStack=0;resizeParent=1;resizeParentMax=0;resizeLast=0;collapsible=1;marginBottom=0;" parent="1" vertex="1">
          <mxGeometry x="490" y="260" width="140" height="30" as="geometry" />
        </mxCell>
        <mxCell id="JnBSOTNsjS47_WGtsw8d-1" value="Return" style="swimlane;fontStyle=0;childLayout=stackLayout;horizontal=1;startSize=26;fillColor=none;horizontalStack=0;resizeParent=1;resizeParentMax=0;resizeLast=0;collapsible=1;marginBottom=0;" parent="1" vertex="1">
          <mxGeometry x="610" y="341" width="140" height="29" as="geometry" />
        </mxCell>
        <mxCell id="JnBSOTNsjS47_WGtsw8d-5" value="Function" style="swimlane;fontStyle=0;childLayout=stackLayout;horizontal=1;startSize=26;fillColor=none;horizontalStack=0;resizeParent=1;resizeParentMax=0;resizeLast=0;collapsible=1;marginBottom=0;" parent="1" vertex="1">
          <mxGeometry x="730" y="260" width="140" height="30" as="geometry" />
        </mxCell>
        <mxCell id="JnBSOTNsjS47_WGtsw8d-9" value="" style="endArrow=block;dashed=1;endFill=0;endSize=12;html=1;rounded=0;exitX=0.5;exitY=0;exitDx=0;exitDy=0;entryX=0.5;entryY=1;entryDx=0;entryDy=0;" parent="1" source="ONvNdnsmpPbUrXH8ia57-2" target="krJR6k9mLciAH31oZKHc-1" edge="1">
          <mxGeometry width="160" relative="1" as="geometry">
            <mxPoint x="200" y="170" as="sourcePoint" />
            <mxPoint x="360" y="170" as="targetPoint" />
            <Array as="points">
              <mxPoint x="200" y="170" />
              <mxPoint x="525" y="170" />
            </Array>
          </mxGeometry>
        </mxCell>
        <mxCell id="JnBSOTNsjS47_WGtsw8d-10" value="" style="endArrow=block;dashed=1;endFill=0;endSize=12;html=1;rounded=0;entryX=0.5;entryY=1;entryDx=0;entryDy=0;exitX=0.5;exitY=0;exitDx=0;exitDy=0;" parent="1" source="qxFiza6Zk3G1IHZCG_po-1" target="krJR6k9mLciAH31oZKHc-1" edge="1">
          <mxGeometry width="160" relative="1" as="geometry">
            <mxPoint x="200" y="170" as="sourcePoint" />
            <mxPoint x="360" y="170" as="targetPoint" />
            <Array as="points">
              <mxPoint x="80" y="170" />
              <mxPoint x="525" y="170" />
            </Array>
          </mxGeometry>
        </mxCell>
        <mxCell id="JnBSOTNsjS47_WGtsw8d-11" value="" style="endArrow=block;dashed=1;endFill=0;endSize=12;html=1;rounded=0;exitX=0.5;exitY=0;exitDx=0;exitDy=0;entryX=0.5;entryY=1;entryDx=0;entryDy=0;" parent="1" source="ONvNdnsmpPbUrXH8ia57-11" target="krJR6k9mLciAH31oZKHc-1" edge="1">
          <mxGeometry width="160" relative="1" as="geometry">
            <mxPoint x="540" y="150" as="sourcePoint" />
            <mxPoint x="700" y="150" as="targetPoint" />
            <Array as="points">
              <mxPoint x="560" y="170" />
              <mxPoint x="525" y="170" />
            </Array>
          </mxGeometry>
        </mxCell>
        <mxCell id="JnBSOTNsjS47_WGtsw8d-12" value="" style="endArrow=block;dashed=1;endFill=0;endSize=12;html=1;rounded=0;exitX=0.5;exitY=0;exitDx=0;exitDy=0;entryX=0.5;entryY=1;entryDx=0;entryDy=0;" parent="1" source="JnBSOTNsjS47_WGtsw8d-5" target="krJR6k9mLciAH31oZKHc-1" edge="1">
          <mxGeometry width="160" relative="1" as="geometry">
            <mxPoint x="670" y="160" as="sourcePoint" />
            <mxPoint x="830" y="160" as="targetPoint" />
            <Array as="points">
              <mxPoint x="800" y="170" />
              <mxPoint x="525" y="170" />
            </Array>
          </mxGeometry>
        </mxCell>
        <mxCell id="JnBSOTNsjS47_WGtsw8d-13" value="" style="endArrow=block;dashed=1;endFill=0;endSize=12;html=1;rounded=0;entryX=0.5;entryY=1;entryDx=0;entryDy=0;exitX=0.5;exitY=0;exitDx=0;exitDy=0;" parent="1" source="ONvNdnsmpPbUrXH8ia57-7" target="krJR6k9mLciAH31oZKHc-1" edge="1">
          <mxGeometry width="160" relative="1" as="geometry">
            <mxPoint x="460" y="250" as="sourcePoint" />
            <mxPoint x="620" y="250" as="targetPoint" />
            <Array as="points">
              <mxPoint x="440" y="170" />
              <mxPoint x="525" y="170" />
            </Array>
          </mxGeometry>
        </mxCell>
        <mxCell id="JnBSOTNsjS47_WGtsw8d-14" value="" style="endArrow=block;dashed=1;endFill=0;endSize=12;html=1;rounded=0;exitX=0.5;exitY=0;exitDx=0;exitDy=0;entryX=0.5;entryY=1;entryDx=0;entryDy=0;" parent="1" source="JnBSOTNsjS47_WGtsw8d-1" target="krJR6k9mLciAH31oZKHc-1" edge="1">
          <mxGeometry width="160" relative="1" as="geometry">
            <mxPoint x="700" y="250" as="sourcePoint" />
            <mxPoint x="600" y="160" as="targetPoint" />
            <Array as="points">
              <mxPoint x="680" y="170" />
              <mxPoint x="525" y="170" />
            </Array>
          </mxGeometry>
        </mxCell>
        <mxCell id="JnBSOTNsjS47_WGtsw8d-15" value="" style="endArrow=block;dashed=1;endFill=0;endSize=12;html=1;rounded=0;exitX=0.5;exitY=0;exitDx=0;exitDy=0;entryX=0.5;entryY=1;entryDx=0;entryDy=0;" parent="1" source="ONvNdnsmpPbUrXH8ia57-3" target="krJR6k9mLciAH31oZKHc-1" edge="1">
          <mxGeometry width="160" relative="1" as="geometry">
            <mxPoint x="290" y="170" as="sourcePoint" />
            <mxPoint x="450" y="170" as="targetPoint" />
            <Array as="points">
              <mxPoint x="320" y="170" />
              <mxPoint x="525" y="170" />
            </Array>
          </mxGeometry>
        </mxCell>
        <mxCell id="6UZwOkgt6njD_DMZC3ka-1" value="" style="endArrow=diamondThin;endFill=0;endSize=24;html=1;rounded=0;entryX=0.75;entryY=0;entryDx=0;entryDy=0;exitX=0;exitY=0.25;exitDx=0;exitDy=0;" parent="1" source="ONvNdnsmpPbUrXH8ia57-1" target="qxFiza6Zk3G1IHZCG_po-1" edge="1">
          <mxGeometry width="160" relative="1" as="geometry">
            <mxPoint x="420" y="240" as="sourcePoint" />
            <mxPoint x="580" y="240" as="targetPoint" />
            <Array as="points">
              <mxPoint x="115" y="43" />
            </Array>
          </mxGeometry>
        </mxCell>
        <mxCell id="6UZwOkgt6njD_DMZC3ka-2" value="1" style="edgeLabel;html=1;align=center;verticalAlign=middle;resizable=0;points=[];fontSize=12;" parent="6UZwOkgt6njD_DMZC3ka-1" vertex="1" connectable="0">
          <mxGeometry x="-0.9004" relative="1" as="geometry">
            <mxPoint x="4" y="-12" as="offset" />
          </mxGeometry>
        </mxCell>
        <mxCell id="6UZwOkgt6njD_DMZC3ka-3" value="" style="endArrow=diamondThin;endFill=0;endSize=24;html=1;rounded=0;fontSize=12;entryX=0.25;entryY=0;entryDx=0;entryDy=0;exitX=0.25;exitY=1;exitDx=0;exitDy=0;" parent="1" source="ONvNdnsmpPbUrXH8ia57-1" target="ONvNdnsmpPbUrXH8ia57-3" edge="1">
          <mxGeometry width="160" relative="1" as="geometry">
            <mxPoint x="340" y="170" as="sourcePoint" />
            <mxPoint x="500" y="170" as="targetPoint" />
            <Array as="points">
              <mxPoint x="332" y="120" />
              <mxPoint x="285" y="120" />
            </Array>
          </mxGeometry>
        </mxCell>
        <mxCell id="6UZwOkgt6njD_DMZC3ka-4" value="2" style="edgeLabel;html=1;align=center;verticalAlign=middle;resizable=0;points=[];fontSize=12;" parent="6UZwOkgt6njD_DMZC3ka-3" vertex="1" connectable="0">
          <mxGeometry x="-0.8213" y="1" relative="1" as="geometry">
            <mxPoint x="-10" y="-8" as="offset" />
          </mxGeometry>
        </mxCell>
        <mxCell id="6UZwOkgt6njD_DMZC3ka-5" value="" style="endArrow=diamondThin;endFill=0;endSize=24;html=1;rounded=0;fontSize=12;entryX=0.143;entryY=0;entryDx=0;entryDy=0;exitX=0.75;exitY=1;exitDx=0;exitDy=0;entryPerimeter=0;" parent="1" source="ONvNdnsmpPbUrXH8ia57-1" target="ONvNdnsmpPbUrXH8ia57-11" edge="1">
          <mxGeometry width="160" relative="1" as="geometry">
            <mxPoint x="470" y="180" as="sourcePoint" />
            <mxPoint x="630" y="180" as="targetPoint" />
            <Array as="points">
              <mxPoint x="387" y="210" />
              <mxPoint x="510" y="210" />
            </Array>
          </mxGeometry>
        </mxCell>
        <mxCell id="6UZwOkgt6njD_DMZC3ka-6" value="1" style="edgeLabel;html=1;align=center;verticalAlign=middle;resizable=0;points=[];fontSize=12;" parent="6UZwOkgt6njD_DMZC3ka-5" vertex="1" connectable="0">
          <mxGeometry x="-0.9105" relative="1" as="geometry">
            <mxPoint x="6" y="-2" as="offset" />
          </mxGeometry>
        </mxCell>
        <mxCell id="oNF85iPJdgKPSPiCxg9v-5" value="condicion" style="edgeLabel;html=1;align=center;verticalAlign=middle;resizable=0;points=[];rotation=270;" parent="6UZwOkgt6njD_DMZC3ka-5" vertex="1" connectable="0">
          <mxGeometry x="-0.6541" y="-1" relative="1" as="geometry">
            <mxPoint x="-9" y="4" as="offset" />
          </mxGeometry>
        </mxCell>
        <mxCell id="8YWIRo-oinaw7nqDrMSF-3" value="" style="endArrow=diamondThin;endFill=0;endSize=24;html=1;rounded=0;entryX=0.25;entryY=0;entryDx=0;entryDy=0;exitX=0;exitY=0.75;exitDx=0;exitDy=0;" parent="1" source="ONvNdnsmpPbUrXH8ia57-1" target="ONvNdnsmpPbUrXH8ia57-2" edge="1">
          <mxGeometry width="160" relative="1" as="geometry">
            <mxPoint x="304" y="55" as="sourcePoint" />
            <mxPoint x="115" y="240" as="targetPoint" />
            <Array as="points">
              <mxPoint x="165" y="68" />
            </Array>
          </mxGeometry>
        </mxCell>
        <mxCell id="oNF85iPJdgKPSPiCxg9v-1" value="1" style="edgeLabel;html=1;align=center;verticalAlign=middle;resizable=0;points=[];" parent="8YWIRo-oinaw7nqDrMSF-3" vertex="1" connectable="0">
          <mxGeometry x="-0.8824" y="4" relative="1" as="geometry">
            <mxPoint x="10" y="8" as="offset" />
          </mxGeometry>
        </mxCell>
        <mxCell id="7O_N8VcDSCXznvP_mCfp-1" value="" style="endArrow=diamondThin;endFill=0;endSize=24;html=1;rounded=0;entryX=0.25;entryY=0;entryDx=0;entryDy=0;exitX=0.905;exitY=1.003;exitDx=0;exitDy=0;exitPerimeter=0;" parent="1" source="ONvNdnsmpPbUrXH8ia57-1" target="JnBSOTNsjS47_WGtsw8d-1" edge="1">
          <mxGeometry width="160" relative="1" as="geometry">
            <mxPoint x="470" y="300" as="sourcePoint" />
            <mxPoint x="630" y="300" as="targetPoint" />
            <Array as="points">
              <mxPoint x="404" y="190" />
              <mxPoint x="645" y="190" />
            </Array>
          </mxGeometry>
        </mxCell>
        <mxCell id="oNF85iPJdgKPSPiCxg9v-3" value="1" style="edgeLabel;html=1;align=center;verticalAlign=middle;resizable=0;points=[];" parent="7O_N8VcDSCXznvP_mCfp-1" vertex="1" connectable="0">
          <mxGeometry x="-0.9671" relative="1" as="geometry">
            <mxPoint x="5" y="4" as="offset" />
          </mxGeometry>
        </mxCell>
        <mxCell id="oNF85iPJdgKPSPiCxg9v-6" value="value" style="edgeLabel;html=1;align=center;verticalAlign=middle;resizable=0;points=[];rotation=90;" parent="7O_N8VcDSCXznvP_mCfp-1" vertex="1" connectable="0">
          <mxGeometry x="0.6628" y="1" relative="1" as="geometry">
            <mxPoint x="9" as="offset" />
          </mxGeometry>
        </mxCell>
        <mxCell id="7O_N8VcDSCXznvP_mCfp-3" value="" style="endArrow=diamondThin;endFill=0;endSize=24;html=1;rounded=0;exitX=0.5;exitY=1;exitDx=0;exitDy=0;entryX=0.25;entryY=0;entryDx=0;entryDy=0;" parent="1" source="ONvNdnsmpPbUrXH8ia57-1" target="ONvNdnsmpPbUrXH8ia57-7" edge="1">
          <mxGeometry width="160" relative="1" as="geometry">
            <mxPoint x="400" y="210" as="sourcePoint" />
            <mxPoint x="560" y="210" as="targetPoint" />
            <Array as="points">
              <mxPoint x="360" y="220" />
              <mxPoint x="405" y="220" />
            </Array>
          </mxGeometry>
        </mxCell>
        <mxCell id="oNF85iPJdgKPSPiCxg9v-2" value="1" style="edgeLabel;html=1;align=center;verticalAlign=middle;resizable=0;points=[];" parent="7O_N8VcDSCXznvP_mCfp-3" vertex="1" connectable="0">
          <mxGeometry x="-0.9249" y="1" relative="1" as="geometry">
            <mxPoint x="5" y="-1" as="offset" />
          </mxGeometry>
        </mxCell>
        <mxCell id="oNF85iPJdgKPSPiCxg9v-4" value="condicion" style="edgeLabel;html=1;align=center;verticalAlign=middle;resizable=0;points=[];rotation=90;" parent="7O_N8VcDSCXznvP_mCfp-3" vertex="1" connectable="0">
          <mxGeometry x="0.4284" y="-2" relative="1" as="geometry">
            <mxPoint x="11" y="7" as="offset" />
          </mxGeometry>
        </mxCell>
        <mxCell id="AbyZAxjVrtOmGmL_fL4L-1" value="" style="endArrow=diamondThin;endFill=0;endSize=24;html=1;rounded=0;entryX=0.25;entryY=0;entryDx=0;entryDy=0;exitX=1;exitY=0.5;exitDx=0;exitDy=0;" parent="1" source="ONvNdnsmpPbUrXH8ia57-1" target="JnBSOTNsjS47_WGtsw8d-5" edge="1">
          <mxGeometry width="160" relative="1" as="geometry">
            <mxPoint x="680" y="100" as="sourcePoint" />
            <mxPoint x="840" y="100" as="targetPoint" />
            <Array as="points">
              <mxPoint x="440" y="55" />
              <mxPoint x="440" y="130" />
              <mxPoint x="765" y="130" />
            </Array>
          </mxGeometry>
        </mxCell>
        <mxCell id="AbyZAxjVrtOmGmL_fL4L-2" value="*" style="edgeLabel;html=1;align=center;verticalAlign=middle;resizable=0;points=[];fontSize=12;" parent="AbyZAxjVrtOmGmL_fL4L-1" vertex="1" connectable="0">
          <mxGeometry x="-0.9446" y="-1" relative="1" as="geometry">
            <mxPoint x="-10" y="9" as="offset" />
          </mxGeometry>
        </mxCell>
        <mxCell id="SuqktQF8M9u5sJz1wve7-1" value="arguments" style="edgeLabel;html=1;align=center;verticalAlign=middle;resizable=0;points=[];rotation=270;" parent="AbyZAxjVrtOmGmL_fL4L-1" vertex="1" connectable="0">
          <mxGeometry x="0.8381" y="2" relative="1" as="geometry">
            <mxPoint x="-15" y="-11" as="offset" />
          </mxGeometry>
        </mxCell>
        <mxCell id="kExQGVRk6xjBe5UVeIVs-3" value="" style="endArrow=diamondThin;endFill=0;endSize=24;html=1;rounded=0;entryX=0.75;entryY=0;entryDx=0;entryDy=0;exitX=1;exitY=0.5;exitDx=0;exitDy=0;" parent="1" source="krJR6k9mLciAH31oZKHc-1" target="ONvNdnsmpPbUrXH8ia57-11" edge="1">
          <mxGeometry width="160" relative="1" as="geometry">
            <mxPoint x="630" y="60" as="sourcePoint" />
            <mxPoint x="690" y="330" as="targetPoint" />
            <Array as="points">
              <mxPoint x="595" y="55" />
            </Array>
          </mxGeometry>
        </mxCell>
        <mxCell id="kExQGVRk6xjBe5UVeIVs-4" value="*" style="edgeLabel;html=1;align=center;verticalAlign=middle;resizable=0;points=[];" parent="kExQGVRk6xjBe5UVeIVs-3" vertex="1" connectable="0">
          <mxGeometry x="-0.7749" y="1" relative="1" as="geometry">
            <mxPoint x="-12" y="-1" as="offset" />
          </mxGeometry>
        </mxCell>
        <mxCell id="kExQGVRk6xjBe5UVeIVs-5" value="" style="endArrow=diamondThin;endFill=0;endSize=24;html=1;rounded=0;entryX=0.75;entryY=0;entryDx=0;entryDy=0;exitX=0.25;exitY=1;exitDx=0;exitDy=0;" parent="1" source="krJR6k9mLciAH31oZKHc-1" target="ONvNdnsmpPbUrXH8ia57-7" edge="1">
          <mxGeometry width="160" relative="1" as="geometry">
            <mxPoint x="455" y="100" as="sourcePoint" />
            <mxPoint x="470" y="305" as="targetPoint" />
            <Array as="points">
              <mxPoint x="498" y="110" />
              <mxPoint x="475" y="110" />
            </Array>
          </mxGeometry>
        </mxCell>
        <mxCell id="kExQGVRk6xjBe5UVeIVs-6" value="*" style="edgeLabel;html=1;align=center;verticalAlign=middle;resizable=0;points=[];" parent="kExQGVRk6xjBe5UVeIVs-5" vertex="1" connectable="0">
          <mxGeometry x="-0.7749" y="1" relative="1" as="geometry">
            <mxPoint x="-3" y="-22" as="offset" />
          </mxGeometry>
        </mxCell>
        <mxCell id="kExQGVRk6xjBe5UVeIVs-9" value="else body" style="edgeLabel;html=1;align=center;verticalAlign=middle;resizable=0;points=[];fontSize=8;" parent="kExQGVRk6xjBe5UVeIVs-5" vertex="1" connectable="0">
          <mxGeometry x="-0.8372" relative="1" as="geometry">
            <mxPoint x="-5" y="14" as="offset" />
          </mxGeometry>
        </mxCell>
        <mxCell id="kExQGVRk6xjBe5UVeIVs-7" value="" style="endArrow=diamondThin;endFill=0;endSize=24;html=1;rounded=0;entryX=0.75;entryY=0;entryDx=0;entryDy=0;exitX=0.25;exitY=1;exitDx=0;exitDy=0;" parent="1" edge="1">
          <mxGeometry width="160" relative="1" as="geometry">
            <mxPoint x="483" y="80" as="sourcePoint" />
            <mxPoint x="460" y="341" as="targetPoint" />
            <Array as="points">
              <mxPoint x="483" y="100" />
              <mxPoint x="460" y="100" />
            </Array>
          </mxGeometry>
        </mxCell>
        <mxCell id="kExQGVRk6xjBe5UVeIVs-8" value="*" style="edgeLabel;html=1;align=center;verticalAlign=middle;resizable=0;points=[];" parent="kExQGVRk6xjBe5UVeIVs-7" vertex="1" connectable="0">
          <mxGeometry x="-0.7749" y="1" relative="1" as="geometry">
            <mxPoint x="5" y="-13" as="offset" />
          </mxGeometry>
        </mxCell>
        <mxCell id="kExQGVRk6xjBe5UVeIVs-10" value="if body" style="edgeLabel;html=1;align=center;verticalAlign=middle;resizable=0;points=[];fontSize=8;" parent="kExQGVRk6xjBe5UVeIVs-7" vertex="1" connectable="0">
          <mxGeometry x="-0.7486" relative="1" as="geometry">
            <mxPoint x="-7" y="-7" as="offset" />
          </mxGeometry>
        </mxCell>
        <mxCell id="QMHWDLsCH_ysP2QMYHga-1" value="Variable" style="swimlane;fontStyle=0;childLayout=stackLayout;horizontal=1;startSize=26;fillColor=none;horizontalStack=0;resizeParent=1;resizeParentMax=0;resizeLast=0;collapsible=1;marginBottom=0;whiteSpace=wrap;html=1;" parent="1" vertex="1">
          <mxGeometry x="850" y="329.5" width="140" height="52" as="geometry" />
        </mxCell>
        <mxCell id="QMHWDLsCH_ysP2QMYHga-3" value="name: String" style="text;strokeColor=none;fillColor=none;align=left;verticalAlign=top;spacingLeft=4;spacingRight=4;overflow=hidden;rotatable=0;points=[[0,0.5],[1,0.5]];portConstraint=eastwest;whiteSpace=wrap;html=1;" parent="QMHWDLsCH_ysP2QMYHga-1" vertex="1">
          <mxGeometry y="26" width="140" height="26" as="geometry" />
        </mxCell>
        <mxCell id="QMHWDLsCH_ysP2QMYHga-5" value="" style="endArrow=diamondThin;endFill=0;endSize=24;html=1;rounded=0;exitX=0.5;exitY=0;exitDx=0;exitDy=0;entryX=1;entryY=0.5;entryDx=0;entryDy=0;" parent="1" source="QMHWDLsCH_ysP2QMYHga-1" target="JnBSOTNsjS47_WGtsw8d-5" edge="1">
          <mxGeometry width="160" relative="1" as="geometry">
            <mxPoint x="970" y="240" as="sourcePoint" />
            <mxPoint x="1130" y="240" as="targetPoint" />
            <Array as="points">
              <mxPoint x="920" y="275" />
            </Array>
          </mxGeometry>
        </mxCell>
        <mxCell id="QMHWDLsCH_ysP2QMYHga-6" value="1" style="edgeLabel;html=1;align=center;verticalAlign=middle;resizable=0;points=[];" parent="QMHWDLsCH_ysP2QMYHga-5" vertex="1" connectable="0">
          <mxGeometry x="-0.7407" y="1" relative="1" as="geometry">
            <mxPoint x="6" y="3" as="offset" />
          </mxGeometry>
        </mxCell>
      </root>
    </mxGraphModel>
  </diagram>
  <diagram id="X1NR-ai-csLxLvBDfxzp" name="Tipos">
    <mxGraphModel dx="2389" dy="2006" grid="1" gridSize="10" guides="1" tooltips="1" connect="1" arrows="1" fold="1" page="1" pageScale="1" pageWidth="827" pageHeight="1169" math="0" shadow="0">
      <root>
        <mxCell id="0" />
        <mxCell id="1" parent="0" />
        <mxCell id="75nPPmIaSRxjzarLr_0I-1" value="&lt;Singleton&gt;&#xa;CharType" style="swimlane;fontStyle=0;childLayout=stackLayout;horizontal=1;startSize=30;fillColor=none;horizontalStack=0;resizeParent=1;resizeParentMax=0;resizeLast=0;collapsible=1;marginBottom=0;" parent="1" vertex="1">
          <mxGeometry x="359" y="180" width="140" height="36" as="geometry" />
        </mxCell>
        <mxCell id="75nPPmIaSRxjzarLr_0I-5" value="&lt;Singleton&gt;&#xa;DoubleType" style="swimlane;fontStyle=0;childLayout=stackLayout;horizontal=1;startSize=30;fillColor=none;horizontalStack=0;resizeParent=1;resizeParentMax=0;resizeLast=0;collapsible=1;marginBottom=0;" parent="1" vertex="1">
          <mxGeometry x="200" y="180" width="140" height="37" as="geometry" />
        </mxCell>
        <mxCell id="75nPPmIaSRxjzarLr_0I-6" value="&lt;Singleton&gt;&#xa;IntType" style="swimlane;fontStyle=0;childLayout=stackLayout;horizontal=1;startSize=29;fillColor=none;horizontalStack=0;resizeParent=1;resizeParentMax=0;resizeLast=0;collapsible=1;marginBottom=0;" parent="1" vertex="1">
          <mxGeometry x="40" y="180.5" width="140" height="35" as="geometry" />
        </mxCell>
        <mxCell id="tbZC82hKQ5TTTr1Z51DY-3" value="ArrayType" style="swimlane;fontStyle=0;childLayout=stackLayout;horizontal=1;startSize=26;fillColor=none;horizontalStack=0;resizeParent=1;resizeParentMax=0;resizeLast=0;collapsible=1;marginBottom=0;" parent="1" vertex="1">
          <mxGeometry x="520" y="180" width="140" height="52" as="geometry">
            <mxRectangle x="520" y="180" width="100" height="30" as="alternateBounds" />
          </mxGeometry>
        </mxCell>
        <mxCell id="tbZC82hKQ5TTTr1Z51DY-4" value="size: int" style="text;strokeColor=none;fillColor=none;align=left;verticalAlign=top;spacingLeft=4;spacingRight=4;overflow=hidden;rotatable=0;points=[[0,0.5],[1,0.5]];portConstraint=eastwest;" parent="tbZC82hKQ5TTTr1Z51DY-3" vertex="1">
          <mxGeometry y="26" width="140" height="26" as="geometry" />
        </mxCell>
        <mxCell id="tbZC82hKQ5TTTr1Z51DY-7" value="" style="endArrow=diamondThin;endFill=0;endSize=24;html=1;rounded=0;entryX=0.5;entryY=0;entryDx=0;entryDy=0;exitX=1;exitY=0.75;exitDx=0;exitDy=0;" parent="1" source="9FUd6BeV5lXMHqUEgsn5-1" target="tbZC82hKQ5TTTr1Z51DY-3" edge="1">
          <mxGeometry width="160" relative="1" as="geometry">
            <mxPoint x="470" y="50" as="sourcePoint" />
            <mxPoint x="490" y="290" as="targetPoint" />
            <Array as="points">
              <mxPoint x="590" y="20" />
            </Array>
          </mxGeometry>
        </mxCell>
        <mxCell id="ZW1WHRZrZ0dKwGcooeq0-7" value="1" style="edgeLabel;html=1;align=center;verticalAlign=middle;resizable=0;points=[];fontSize=12;" parent="tbZC82hKQ5TTTr1Z51DY-7" vertex="1" connectable="0">
          <mxGeometry x="-0.8963" relative="1" as="geometry">
            <mxPoint x="-5" y="10" as="offset" />
          </mxGeometry>
        </mxCell>
        <mxCell id="tbZC82hKQ5TTTr1Z51DY-8" value="RecordType" style="swimlane;fontStyle=0;childLayout=stackLayout;horizontal=1;startSize=26;fillColor=none;horizontalStack=0;resizeParent=1;resizeParentMax=0;resizeLast=0;collapsible=1;marginBottom=0;" parent="1" vertex="1">
          <mxGeometry x="680" y="180" width="140" height="52" as="geometry" />
        </mxCell>
        <mxCell id="tbZC82hKQ5TTTr1Z51DY-16" value="" style="endArrow=block;dashed=1;endFill=0;endSize=12;html=1;rounded=0;entryX=0.5;entryY=1;entryDx=0;entryDy=0;exitX=0.25;exitY=0;exitDx=0;exitDy=0;" parent="1" source="tbZC82hKQ5TTTr1Z51DY-3" target="9FUd6BeV5lXMHqUEgsn5-1" edge="1">
          <mxGeometry width="160" relative="1" as="geometry">
            <mxPoint x="270" y="200" as="sourcePoint" />
            <mxPoint x="414" y="90" as="targetPoint" />
            <Array as="points">
              <mxPoint x="555" y="130" />
              <mxPoint x="390" y="130" />
            </Array>
          </mxGeometry>
        </mxCell>
        <mxCell id="tbZC82hKQ5TTTr1Z51DY-17" value="" style="endArrow=block;dashed=1;endFill=0;endSize=12;html=1;rounded=0;exitX=0.25;exitY=0;exitDx=0;exitDy=0;entryX=0.5;entryY=1;entryDx=0;entryDy=0;" parent="1" source="tbZC82hKQ5TTTr1Z51DY-8" target="9FUd6BeV5lXMHqUEgsn5-1" edge="1">
          <mxGeometry width="160" relative="1" as="geometry">
            <mxPoint x="270" y="200" as="sourcePoint" />
            <mxPoint x="380" y="80" as="targetPoint" />
            <Array as="points">
              <mxPoint x="715" y="130" />
              <mxPoint x="390" y="130" />
            </Array>
          </mxGeometry>
        </mxCell>
        <mxCell id="ZW1WHRZrZ0dKwGcooeq0-2" value="" style="endArrow=block;dashed=1;endFill=0;endSize=12;html=1;rounded=0;strokeWidth=1;fontSize=8;exitX=0.5;exitY=0;exitDx=0;exitDy=0;entryX=0.5;entryY=1;entryDx=0;entryDy=0;" parent="1" source="75nPPmIaSRxjzarLr_0I-6" target="9FUd6BeV5lXMHqUEgsn5-1" edge="1">
          <mxGeometry width="160" relative="1" as="geometry">
            <mxPoint x="200" y="190" as="sourcePoint" />
            <mxPoint x="380" y="80" as="targetPoint" />
            <Array as="points">
              <mxPoint x="110" y="130" />
              <mxPoint x="390" y="130" />
            </Array>
          </mxGeometry>
        </mxCell>
        <mxCell id="ZW1WHRZrZ0dKwGcooeq0-3" value="" style="endArrow=block;dashed=1;endFill=0;endSize=12;html=1;rounded=0;strokeWidth=1;fontSize=8;exitX=0.5;exitY=0;exitDx=0;exitDy=0;entryX=0.5;entryY=1;entryDx=0;entryDy=0;" parent="1" source="75nPPmIaSRxjzarLr_0I-5" target="9FUd6BeV5lXMHqUEgsn5-1" edge="1">
          <mxGeometry width="160" relative="1" as="geometry">
            <mxPoint x="110" y="321" as="sourcePoint" />
            <mxPoint x="380" y="80" as="targetPoint" />
            <Array as="points">
              <mxPoint x="270" y="130" />
              <mxPoint x="390" y="130" />
            </Array>
          </mxGeometry>
        </mxCell>
        <mxCell id="ZW1WHRZrZ0dKwGcooeq0-4" value="" style="endArrow=block;dashed=1;endFill=0;endSize=12;html=1;rounded=0;strokeWidth=1;fontSize=8;exitX=0.5;exitY=0;exitDx=0;exitDy=0;entryX=0.5;entryY=1;entryDx=0;entryDy=0;" parent="1" source="75nPPmIaSRxjzarLr_0I-1" target="9FUd6BeV5lXMHqUEgsn5-1" edge="1">
          <mxGeometry width="160" relative="1" as="geometry">
            <mxPoint x="110" y="320" as="sourcePoint" />
            <mxPoint x="380" y="80" as="targetPoint" />
            <Array as="points">
              <mxPoint x="430" y="130" />
              <mxPoint x="390" y="130" />
            </Array>
          </mxGeometry>
        </mxCell>
        <mxCell id="ZW1WHRZrZ0dKwGcooeq0-8" value="&lt;Singleton&gt;&#xa;VoidType" style="swimlane;fontStyle=0;childLayout=stackLayout;horizontal=1;startSize=30;fillColor=none;horizontalStack=0;resizeParent=1;resizeParentMax=0;resizeLast=0;collapsible=1;marginBottom=0;fontSize=12;" parent="1" vertex="1">
          <mxGeometry x="-120" y="180" width="140" height="36" as="geometry" />
        </mxCell>
        <mxCell id="ZW1WHRZrZ0dKwGcooeq0-12" value="" style="endArrow=block;dashed=1;endFill=0;endSize=12;html=1;rounded=0;strokeWidth=1;fontSize=12;exitX=0.5;exitY=0;exitDx=0;exitDy=0;entryX=0.5;entryY=1;entryDx=0;entryDy=0;" parent="1" source="ZW1WHRZrZ0dKwGcooeq0-8" target="9FUd6BeV5lXMHqUEgsn5-1" edge="1">
          <mxGeometry width="160" relative="1" as="geometry">
            <mxPoint x="-50" y="130" as="sourcePoint" />
            <mxPoint x="390" y="90" as="targetPoint" />
            <Array as="points">
              <mxPoint x="-50" y="130" />
              <mxPoint x="390" y="130" />
            </Array>
          </mxGeometry>
        </mxCell>
        <mxCell id="O3UVcPUkU44QCcCI12cy-1" value="RecordField" style="swimlane;fontStyle=0;childLayout=stackLayout;horizontal=1;startSize=26;fillColor=none;horizontalStack=0;resizeParent=1;resizeParentMax=0;resizeLast=0;collapsible=1;marginBottom=0;fontSize=12;" parent="1" vertex="1">
          <mxGeometry x="840" y="280" width="140" height="52" as="geometry" />
        </mxCell>
        <mxCell id="O3UVcPUkU44QCcCI12cy-2" value="name: String" style="text;strokeColor=none;fillColor=none;align=left;verticalAlign=top;spacingLeft=4;spacingRight=4;overflow=hidden;rotatable=0;points=[[0,0.5],[1,0.5]];portConstraint=eastwest;fontSize=12;" parent="O3UVcPUkU44QCcCI12cy-1" vertex="1">
          <mxGeometry y="26" width="140" height="26" as="geometry" />
        </mxCell>
        <mxCell id="O3UVcPUkU44QCcCI12cy-5" value="" style="endArrow=diamondThin;endFill=0;endSize=24;html=1;rounded=0;strokeWidth=1;fontSize=12;exitX=0.25;exitY=0;exitDx=0;exitDy=0;entryX=1;entryY=0.25;entryDx=0;entryDy=0;" parent="1" source="O3UVcPUkU44QCcCI12cy-1" target="tbZC82hKQ5TTTr1Z51DY-8" edge="1">
          <mxGeometry width="160" relative="1" as="geometry">
            <mxPoint x="870" y="230" as="sourcePoint" />
            <mxPoint x="1030" y="230" as="targetPoint" />
            <Array as="points">
              <mxPoint x="875" y="193" />
            </Array>
          </mxGeometry>
        </mxCell>
        <mxCell id="O3UVcPUkU44QCcCI12cy-6" value="*" style="edgeLabel;html=1;align=center;verticalAlign=middle;resizable=0;points=[];fontSize=12;" parent="O3UVcPUkU44QCcCI12cy-5" vertex="1" connectable="0">
          <mxGeometry x="-0.7371" y="-2" relative="1" as="geometry">
            <mxPoint x="-11" y="5" as="offset" />
          </mxGeometry>
        </mxCell>
        <mxCell id="O3UVcPUkU44QCcCI12cy-7" value="" style="endArrow=diamondThin;endFill=0;endSize=24;html=1;rounded=0;strokeWidth=1;fontSize=12;entryX=0.75;entryY=0;entryDx=0;entryDy=0;exitX=1;exitY=0.5;exitDx=0;exitDy=0;" parent="1" source="9FUd6BeV5lXMHqUEgsn5-1" target="O3UVcPUkU44QCcCI12cy-1" edge="1">
          <mxGeometry width="160" relative="1" as="geometry">
            <mxPoint x="810" y="100" as="sourcePoint" />
            <mxPoint x="970" y="100" as="targetPoint" />
            <Array as="points">
              <mxPoint x="945" y="-40" />
            </Array>
          </mxGeometry>
        </mxCell>
        <mxCell id="O3UVcPUkU44QCcCI12cy-9" value="1" style="edgeLabel;html=1;align=center;verticalAlign=middle;resizable=0;points=[];fontSize=12;" parent="O3UVcPUkU44QCcCI12cy-7" vertex="1" connectable="0">
          <mxGeometry x="-0.9457" y="1" relative="1" as="geometry">
            <mxPoint x="10" y="8" as="offset" />
          </mxGeometry>
        </mxCell>
        <mxCell id="O3UVcPUkU44QCcCI12cy-10" value="FunctionType" style="swimlane;fontStyle=0;childLayout=stackLayout;horizontal=1;startSize=26;fillColor=none;horizontalStack=0;resizeParent=1;resizeParentMax=0;resizeLast=0;collapsible=1;marginBottom=0;fontSize=12;" parent="1" vertex="1">
          <mxGeometry x="980" y="180" width="140" height="30" as="geometry" />
        </mxCell>
        <mxCell id="O3UVcPUkU44QCcCI12cy-14" value="VarDefinition" style="swimlane;fontStyle=0;childLayout=stackLayout;horizontal=1;startSize=26;fillColor=none;horizontalStack=0;resizeParent=1;resizeParentMax=0;resizeLast=0;collapsible=1;marginBottom=0;fontSize=12;" parent="1" vertex="1">
          <mxGeometry x="1190" y="120" width="140" height="30" as="geometry" />
        </mxCell>
        <mxCell id="O3UVcPUkU44QCcCI12cy-18" value="" style="endArrow=diamondThin;endFill=0;endSize=24;html=1;rounded=0;strokeWidth=1;fontSize=12;entryX=0.75;entryY=0;entryDx=0;entryDy=0;exitX=0;exitY=0.5;exitDx=0;exitDy=0;" parent="1" source="O3UVcPUkU44QCcCI12cy-14" target="O3UVcPUkU44QCcCI12cy-10" edge="1">
          <mxGeometry width="160" relative="1" as="geometry">
            <mxPoint x="970" y="60" as="sourcePoint" />
            <mxPoint x="1150" y="140" as="targetPoint" />
            <Array as="points">
              <mxPoint x="1085" y="135" />
            </Array>
          </mxGeometry>
        </mxCell>
        <mxCell id="O3UVcPUkU44QCcCI12cy-20" value="*" style="edgeLabel;html=1;align=center;verticalAlign=middle;resizable=0;points=[];fontSize=12;" parent="O3UVcPUkU44QCcCI12cy-18" vertex="1" connectable="0">
          <mxGeometry x="-0.8084" y="-1" relative="1" as="geometry">
            <mxPoint x="10" y="9" as="offset" />
          </mxGeometry>
        </mxCell>
        <mxCell id="Jv6Ffw9oL-azwDSDXJu7-4" value="arguments" style="edgeLabel;html=1;align=center;verticalAlign=middle;resizable=0;points=[];" parent="O3UVcPUkU44QCcCI12cy-18" vertex="1" connectable="0">
          <mxGeometry x="-0.1573" y="1" relative="1" as="geometry">
            <mxPoint y="-16" as="offset" />
          </mxGeometry>
        </mxCell>
        <mxCell id="O3UVcPUkU44QCcCI12cy-19" value="" style="endArrow=block;dashed=1;endFill=0;endSize=12;html=1;rounded=0;strokeWidth=1;fontSize=12;exitX=0.25;exitY=0;exitDx=0;exitDy=0;entryX=0.5;entryY=1;entryDx=0;entryDy=0;" parent="1" source="O3UVcPUkU44QCcCI12cy-10" target="9FUd6BeV5lXMHqUEgsn5-1" edge="1">
          <mxGeometry width="160" relative="1" as="geometry">
            <mxPoint x="930" y="160" as="sourcePoint" />
            <mxPoint x="414" y="90" as="targetPoint" />
            <Array as="points">
              <mxPoint x="1015" y="130" />
              <mxPoint x="390" y="130" />
            </Array>
          </mxGeometry>
        </mxCell>
        <mxCell id="Jv6Ffw9oL-azwDSDXJu7-1" value="" style="endArrow=diamondThin;endFill=0;endSize=24;html=1;rounded=0;entryX=0.5;entryY=0;entryDx=0;entryDy=0;exitX=1;exitY=0.25;exitDx=0;exitDy=0;" parent="1" source="9FUd6BeV5lXMHqUEgsn5-1" target="O3UVcPUkU44QCcCI12cy-10" edge="1">
          <mxGeometry width="160" relative="1" as="geometry">
            <mxPoint x="970" y="20" as="sourcePoint" />
            <mxPoint x="1050" y="70" as="targetPoint" />
            <Array as="points">
              <mxPoint x="1050" y="-100" />
            </Array>
          </mxGeometry>
        </mxCell>
        <mxCell id="Jv6Ffw9oL-azwDSDXJu7-2" value="1" style="edgeLabel;html=1;align=center;verticalAlign=middle;resizable=0;points=[];" parent="Jv6Ffw9oL-azwDSDXJu7-1" vertex="1" connectable="0">
          <mxGeometry x="-0.9525" y="-2" relative="1" as="geometry">
            <mxPoint x="-9" y="-11" as="offset" />
          </mxGeometry>
        </mxCell>
        <mxCell id="Jv6Ffw9oL-azwDSDXJu7-3" value="return type" style="edgeLabel;html=1;align=center;verticalAlign=middle;resizable=0;points=[];" parent="Jv6Ffw9oL-azwDSDXJu7-1" vertex="1" connectable="0">
          <mxGeometry x="0.7175" y="1" relative="1" as="geometry">
            <mxPoint x="-30" y="-41" as="offset" />
          </mxGeometry>
        </mxCell>
        <mxCell id="cXf8PkQfCrDeT4Ptem_5-1" value="ErrorType" style="swimlane;fontStyle=0;childLayout=stackLayout;horizontal=1;startSize=26;fillColor=none;horizontalStack=0;resizeParent=1;resizeParentMax=0;resizeLast=0;collapsible=1;marginBottom=0;whiteSpace=wrap;html=1;" parent="1" vertex="1">
          <mxGeometry x="-280" y="180" width="140" height="86" as="geometry" />
        </mxCell>
        <mxCell id="cXf8PkQfCrDeT4Ptem_5-2" value="message: String" style="text;strokeColor=none;fillColor=none;align=left;verticalAlign=top;spacingLeft=4;spacingRight=4;overflow=hidden;rotatable=0;points=[[0,0.5],[1,0.5]];portConstraint=eastwest;whiteSpace=wrap;html=1;" parent="cXf8PkQfCrDeT4Ptem_5-1" vertex="1">
          <mxGeometry y="26" width="140" height="26" as="geometry" />
        </mxCell>
        <mxCell id="cXf8PkQfCrDeT4Ptem_5-12" value="" style="line;strokeWidth=1;fillColor=none;align=left;verticalAlign=middle;spacingTop=-1;spacingLeft=3;spacingRight=3;rotatable=0;labelPosition=right;points=[];portConstraint=eastwest;strokeColor=inherit;" parent="cXf8PkQfCrDeT4Ptem_5-1" vertex="1">
          <mxGeometry y="52" width="140" height="8" as="geometry" />
        </mxCell>
        <mxCell id="cXf8PkQfCrDeT4Ptem_5-11" value="toString(): String" style="text;strokeColor=none;fillColor=none;align=left;verticalAlign=top;spacingLeft=4;spacingRight=4;overflow=hidden;rotatable=0;points=[[0,0.5],[1,0.5]];portConstraint=eastwest;whiteSpace=wrap;html=1;" parent="cXf8PkQfCrDeT4Ptem_5-1" vertex="1">
          <mxGeometry y="60" width="140" height="26" as="geometry" />
        </mxCell>
        <mxCell id="cXf8PkQfCrDeT4Ptem_5-5" value="" style="endArrow=block;dashed=1;endFill=0;endSize=12;html=1;rounded=0;exitX=0.5;exitY=0;exitDx=0;exitDy=0;entryX=0.5;entryY=1;entryDx=0;entryDy=0;" parent="1" source="cXf8PkQfCrDeT4Ptem_5-1" target="9FUd6BeV5lXMHqUEgsn5-1" edge="1">
          <mxGeometry width="160" relative="1" as="geometry">
            <mxPoint x="-160" y="80" as="sourcePoint" />
            <mxPoint x="414" y="90" as="targetPoint" />
            <Array as="points">
              <mxPoint x="-210" y="130" />
              <mxPoint x="390" y="130" />
            </Array>
          </mxGeometry>
        </mxCell>
        <mxCell id="cXf8PkQfCrDeT4Ptem_5-6" value="&amp;lt;Singleton&amp;gt;&lt;br&gt;ErrorHandler" style="swimlane;fontStyle=0;childLayout=stackLayout;horizontal=1;startSize=34;fillColor=none;horizontalStack=0;resizeParent=1;resizeParentMax=0;resizeLast=0;collapsible=1;marginBottom=0;whiteSpace=wrap;html=1;points=[[0,0,0,0,0],[0,0.25,0,0,0],[0,0.5,0,0,0],[0,0.75,0,0,0],[0,1,0,0,0],[0.25,0,0,0,0],[0.25,1,0,0,0],[0.5,0,0,0,0],[0.5,1,0,0,0],[0.75,0,0,0,0],[0.75,1,0,0,0],[1,0,0,0,0],[1,0.25,0,0,0],[1,0.5,0,0,0],[1,0.75,0,0,0],[1,1,0,0,0]];" parent="1" vertex="1">
          <mxGeometry x="-550" y="176" width="150" height="112" as="geometry">
            <mxRectangle x="-550" y="176" width="110" height="40" as="alternateBounds" />
          </mxGeometry>
        </mxCell>
        <mxCell id="cXf8PkQfCrDeT4Ptem_5-7" value="anyError(): boolean" style="text;strokeColor=none;fillColor=none;align=left;verticalAlign=top;spacingLeft=4;spacingRight=4;overflow=hidden;rotatable=0;points=[[0,0.5],[1,0.5]];portConstraint=eastwest;whiteSpace=wrap;html=1;" parent="cXf8PkQfCrDeT4Ptem_5-6" vertex="1">
          <mxGeometry y="34" width="150" height="26" as="geometry" />
        </mxCell>
        <mxCell id="cXf8PkQfCrDeT4Ptem_5-8" value="showErrors(PrintStream)" style="text;strokeColor=none;fillColor=none;align=left;verticalAlign=top;spacingLeft=4;spacingRight=4;overflow=hidden;rotatable=0;points=[[0,0.5],[1,0.5]];portConstraint=eastwest;whiteSpace=wrap;html=1;" parent="cXf8PkQfCrDeT4Ptem_5-6" vertex="1">
          <mxGeometry y="60" width="150" height="26" as="geometry" />
        </mxCell>
        <mxCell id="cXf8PkQfCrDeT4Ptem_5-9" value="addError(ErrorType)" style="text;strokeColor=none;fillColor=none;align=left;verticalAlign=top;spacingLeft=4;spacingRight=4;overflow=hidden;rotatable=0;points=[[0,0.5],[1,0.5]];portConstraint=eastwest;whiteSpace=wrap;html=1;" parent="cXf8PkQfCrDeT4Ptem_5-6" vertex="1">
          <mxGeometry y="86" width="150" height="26" as="geometry" />
        </mxCell>
        <mxCell id="cXf8PkQfCrDeT4Ptem_5-13" value="" style="endArrow=open;endFill=1;endSize=12;html=1;rounded=0;exitX=1;exitY=0.25;exitDx=0;exitDy=0;exitPerimeter=0;" parent="1" source="cXf8PkQfCrDeT4Ptem_5-6" edge="1">
          <mxGeometry width="160" relative="1" as="geometry">
            <mxPoint x="-400" y="210" as="sourcePoint" />
            <mxPoint x="-280" y="204" as="targetPoint" />
          </mxGeometry>
        </mxCell>
        <mxCell id="cXf8PkQfCrDeT4Ptem_5-14" value="*" style="edgeLabel;html=1;align=center;verticalAlign=middle;resizable=0;points=[];" parent="cXf8PkQfCrDeT4Ptem_5-13" vertex="1" connectable="0">
          <mxGeometry x="0.5981" relative="1" as="geometry">
            <mxPoint y="-11" as="offset" />
          </mxGeometry>
        </mxCell>
        <mxCell id="HGsoivJToDzmUsJd3-i2-1" value="" style="endArrow=block;dashed=1;endFill=0;endSize=12;html=1;rounded=0;exitX=0.5;exitY=0;exitDx=0;exitDy=0;entryX=0.5;entryY=1;entryDx=0;entryDy=0;" parent="1" source="O3UVcPUkU44QCcCI12cy-1" target="9FUd6BeV5lXMHqUEgsn5-1" edge="1">
          <mxGeometry width="160" relative="1" as="geometry">
            <mxPoint x="850" y="150" as="sourcePoint" />
            <mxPoint x="380" y="80" as="targetPoint" />
            <Array as="points">
              <mxPoint x="910" y="130" />
              <mxPoint x="390" y="130" />
            </Array>
          </mxGeometry>
        </mxCell>
        <mxCell id="9FUd6BeV5lXMHqUEgsn5-1" value="&lt;p style=&quot;margin:0px;margin-top:4px;text-align:center;&quot;&gt;&lt;i&gt;&amp;lt;&amp;lt;Interface&amp;gt;&amp;gt;&lt;/i&gt;&lt;br&gt;&lt;b&gt;Type&lt;/b&gt;&lt;/p&gt;&lt;hr size=&quot;1&quot;&gt;&lt;p style=&quot;margin:0px;margin-left:4px;&quot;&gt;asBuiltInType(ASTNode): Type&lt;/p&gt;&lt;p style=&quot;margin:0px;margin-left:4px;&quot;&gt;asLogical(ASTNode): Type&lt;/p&gt;&lt;p style=&quot;margin:0px;margin-left:4px;&quot;&gt;parenthesis(ASTNode): Type&lt;/p&gt;&lt;p style=&quot;margin:0px;margin-left:4px;&quot;&gt;arithmetic(Type, ASTNode): Type&lt;/p&gt;&lt;p style=&quot;margin:0px;margin-left:4px;&quot;&gt;arithmetic(ASTNode): Type&lt;/p&gt;&lt;p style=&quot;margin:0px;margin-left:4px;&quot;&gt;comparison(Type, ASTNode): Type&lt;/p&gt;&lt;p style=&quot;margin:0px;margin-left:4px;&quot;&gt;logic(Type, ASTNode): Type&lt;/p&gt;&lt;p style=&quot;margin:0px;margin-left:4px;&quot;&gt;logic(ASTNode): Type&lt;/p&gt;&lt;p style=&quot;margin:0px;margin-left:4px;&quot;&gt;canBeCastTo(Type): Type&lt;/p&gt;&lt;p style=&quot;margin:0px;margin-left:4px;&quot;&gt;promotesTo(Type): Type&lt;/p&gt;&lt;p style=&quot;margin:0px;margin-left:4px;&quot;&gt;squareBrackets(Type, ASTNode): Type&lt;/p&gt;&lt;p style=&quot;margin:0px;margin-left:4px;&quot;&gt;dot(String, ASTNode): Type&lt;/p&gt;&lt;p style=&quot;margin:0px;margin-left:4px;&quot;&gt;numberOfBytes(): int&lt;/p&gt;" style="verticalAlign=top;align=left;overflow=fill;fontSize=12;fontFamily=Helvetica;html=1;whiteSpace=wrap;" parent="1" vertex="1">
          <mxGeometry x="270" y="-160" width="240" height="240" as="geometry" />
        </mxCell>
      </root>
    </mxGraphModel>
  </diagram>
  <diagram id="C5RBs43oDa-KdzZeNtuy" name="Expresiones">
    <mxGraphModel dx="2389" dy="837" grid="1" gridSize="10" guides="1" tooltips="1" connect="1" arrows="1" fold="1" page="1" pageScale="1" pageWidth="827" pageHeight="1169" math="0" shadow="0">
      <root>
        <mxCell id="WIyWlLk6GJQsqaUBKTNV-0" />
        <mxCell id="WIyWlLk6GJQsqaUBKTNV-1" parent="WIyWlLk6GJQsqaUBKTNV-0" />
        <mxCell id="nMoWCGT16thsGKDCYWbZ-1" value="Arithmetic" style="swimlane;fontStyle=0;childLayout=stackLayout;horizontal=1;startSize=26;fillColor=none;horizontalStack=0;resizeParent=1;resizeParentMax=0;resizeLast=0;collapsible=1;marginBottom=0;" parent="WIyWlLk6GJQsqaUBKTNV-1" vertex="1">
          <mxGeometry x="20" y="400" width="140" height="52" as="geometry">
            <mxRectangle x="160" y="370" width="90" height="30" as="alternateBounds" />
          </mxGeometry>
        </mxCell>
        <mxCell id="nMoWCGT16thsGKDCYWbZ-2" value="operator: String" style="text;strokeColor=none;fillColor=none;align=left;verticalAlign=top;spacingLeft=4;spacingRight=4;overflow=hidden;rotatable=0;points=[[0,0.5],[1,0.5]];portConstraint=eastwest;" parent="nMoWCGT16thsGKDCYWbZ-1" vertex="1">
          <mxGeometry y="26" width="140" height="26" as="geometry" />
        </mxCell>
        <mxCell id="nMoWCGT16thsGKDCYWbZ-5" value="" style="endArrow=diamondThin;endFill=0;endSize=24;html=1;rounded=0;exitX=0;exitY=0.5;exitDx=0;exitDy=0;" parent="WIyWlLk6GJQsqaUBKTNV-1" source="Z3i-YVO-exar2sjQs40s-0" target="nMoWCGT16thsGKDCYWbZ-1" edge="1">
          <mxGeometry width="160" relative="1" as="geometry">
            <mxPoint x="330" y="290" as="sourcePoint" />
            <mxPoint x="490" y="290" as="targetPoint" />
            <Array as="points">
              <mxPoint x="90" y="255" />
            </Array>
          </mxGeometry>
        </mxCell>
        <mxCell id="nMoWCGT16thsGKDCYWbZ-6" value="2" style="edgeLabel;html=1;align=center;verticalAlign=middle;resizable=0;points=[];" parent="nMoWCGT16thsGKDCYWbZ-5" vertex="1" connectable="0">
          <mxGeometry x="-0.7756" relative="1" as="geometry">
            <mxPoint x="15" y="-10" as="offset" />
          </mxGeometry>
        </mxCell>
        <mxCell id="nMoWCGT16thsGKDCYWbZ-11" value="Variable" style="swimlane;fontStyle=0;childLayout=stackLayout;horizontal=1;startSize=26;fillColor=none;horizontalStack=0;resizeParent=1;resizeParentMax=0;resizeLast=0;collapsible=1;marginBottom=0;points=[[0,0,0,0,0],[0,0.25,0,0,0],[0,0.5,0,0,0],[0,0.75,0,0,0],[0,1,0,0,0],[0.25,0,0,0,0],[0.25,1,0,0,0],[0.5,0,0,0,0],[0.5,1,0,0,0],[0.75,0,0,0,0],[0.75,1,0,0,0],[1,0,0,0,0],[1,0.25,0,0,0],[1,0.5,0,0,0],[1,0.75,0,0,0],[1,1,0,0,0]];" parent="WIyWlLk6GJQsqaUBKTNV-1" vertex="1">
          <mxGeometry x="260" y="400" width="140" height="52" as="geometry" />
        </mxCell>
        <mxCell id="nMoWCGT16thsGKDCYWbZ-12" value="name: String" style="text;strokeColor=none;fillColor=none;align=left;verticalAlign=top;spacingLeft=4;spacingRight=4;overflow=hidden;rotatable=0;points=[[0,0.5],[1,0.5]];portConstraint=eastwest;" parent="nMoWCGT16thsGKDCYWbZ-11" vertex="1">
          <mxGeometry y="26" width="140" height="26" as="geometry" />
        </mxCell>
        <mxCell id="nMoWCGT16thsGKDCYWbZ-17" value="IntLiteral" style="swimlane;fontStyle=0;childLayout=stackLayout;horizontal=1;startSize=26;fillColor=none;horizontalStack=0;resizeParent=1;resizeParentMax=0;resizeLast=0;collapsible=1;marginBottom=0;" parent="WIyWlLk6GJQsqaUBKTNV-1" vertex="1">
          <mxGeometry x="380" y="522" width="140" height="52" as="geometry" />
        </mxCell>
        <mxCell id="nMoWCGT16thsGKDCYWbZ-18" value="value: int" style="text;strokeColor=none;fillColor=none;align=left;verticalAlign=top;spacingLeft=4;spacingRight=4;overflow=hidden;rotatable=0;points=[[0,0.5],[1,0.5]];portConstraint=eastwest;" parent="nMoWCGT16thsGKDCYWbZ-17" vertex="1">
          <mxGeometry y="26" width="140" height="26" as="geometry" />
        </mxCell>
        <mxCell id="nMoWCGT16thsGKDCYWbZ-19" value="UnaryMinus" style="swimlane;fontStyle=0;childLayout=stackLayout;horizontal=1;startSize=26;fillColor=none;horizontalStack=0;resizeParent=1;resizeParentMax=0;resizeLast=0;collapsible=1;marginBottom=0;" parent="WIyWlLk6GJQsqaUBKTNV-1" vertex="1">
          <mxGeometry x="740" y="400" width="140" height="30" as="geometry" />
        </mxCell>
        <mxCell id="nMoWCGT16thsGKDCYWbZ-23" value="" style="endArrow=diamondThin;endFill=0;endSize=24;html=1;rounded=0;entryX=0.553;entryY=-0.023;entryDx=0;entryDy=0;entryPerimeter=0;exitX=1;exitY=0.75;exitDx=0;exitDy=0;" parent="WIyWlLk6GJQsqaUBKTNV-1" source="Z3i-YVO-exar2sjQs40s-0" target="nMoWCGT16thsGKDCYWbZ-19" edge="1">
          <mxGeometry width="160" relative="1" as="geometry">
            <mxPoint x="470" y="300" as="sourcePoint" />
            <mxPoint x="630" y="280" as="targetPoint" />
            <Array as="points">
              <mxPoint x="817" y="283" />
            </Array>
          </mxGeometry>
        </mxCell>
        <mxCell id="nMoWCGT16thsGKDCYWbZ-24" value="1" style="edgeLabel;html=1;align=center;verticalAlign=middle;resizable=0;points=[];" parent="nMoWCGT16thsGKDCYWbZ-23" vertex="1" connectable="0">
          <mxGeometry x="-0.9381" y="1" relative="1" as="geometry">
            <mxPoint x="-7" y="9" as="offset" />
          </mxGeometry>
        </mxCell>
        <mxCell id="nMoWCGT16thsGKDCYWbZ-25" value="" style="endArrow=block;dashed=1;endFill=0;endSize=12;html=1;rounded=0;entryX=0.5;entryY=1;entryDx=0;entryDy=0;exitX=0.684;exitY=-0.004;exitDx=0;exitDy=0;exitPerimeter=0;" parent="WIyWlLk6GJQsqaUBKTNV-1" source="nMoWCGT16thsGKDCYWbZ-11" target="Z3i-YVO-exar2sjQs40s-0" edge="1">
          <mxGeometry width="160" relative="1" as="geometry">
            <mxPoint x="400" y="400" as="sourcePoint" />
            <mxPoint x="415" y="310" as="targetPoint" />
            <Array as="points">
              <mxPoint x="356" y="350" />
              <mxPoint x="415" y="350" />
            </Array>
          </mxGeometry>
        </mxCell>
        <mxCell id="nMoWCGT16thsGKDCYWbZ-26" value="" style="endArrow=block;dashed=1;endFill=0;endSize=12;html=1;rounded=0;exitX=0.5;exitY=0;exitDx=0;exitDy=0;entryX=0.5;entryY=1;entryDx=0;entryDy=0;" parent="WIyWlLk6GJQsqaUBKTNV-1" source="nMoWCGT16thsGKDCYWbZ-17" target="Z3i-YVO-exar2sjQs40s-0" edge="1">
          <mxGeometry width="160" relative="1" as="geometry">
            <mxPoint x="426" y="400" as="sourcePoint" />
            <mxPoint x="415" y="310" as="targetPoint" />
            <Array as="points">
              <mxPoint x="450" y="350" />
              <mxPoint x="415" y="350" />
            </Array>
          </mxGeometry>
        </mxCell>
        <mxCell id="nMoWCGT16thsGKDCYWbZ-27" value="" style="endArrow=block;dashed=1;endFill=0;endSize=12;html=1;rounded=0;exitX=0.5;exitY=0;exitDx=0;exitDy=0;entryX=0.5;entryY=1;entryDx=0;entryDy=0;" parent="WIyWlLk6GJQsqaUBKTNV-1" source="nMoWCGT16thsGKDCYWbZ-29" target="Z3i-YVO-exar2sjQs40s-0" edge="1">
          <mxGeometry width="160" relative="1" as="geometry">
            <mxPoint x="685" y="390" as="sourcePoint" />
            <mxPoint x="415" y="310" as="targetPoint" />
            <Array as="points">
              <mxPoint x="570" y="350" />
              <mxPoint x="415" y="350" />
            </Array>
          </mxGeometry>
        </mxCell>
        <mxCell id="nMoWCGT16thsGKDCYWbZ-28" value="" style="endArrow=block;dashed=1;endFill=0;endSize=12;html=1;rounded=0;entryX=0.5;entryY=1;entryDx=0;entryDy=0;exitX=0.75;exitY=0;exitDx=0;exitDy=0;" parent="WIyWlLk6GJQsqaUBKTNV-1" source="nMoWCGT16thsGKDCYWbZ-1" target="Z3i-YVO-exar2sjQs40s-0" edge="1">
          <mxGeometry width="160" relative="1" as="geometry">
            <mxPoint x="415.5" y="390" as="sourcePoint" />
            <mxPoint x="414.5" y="310" as="targetPoint" />
            <Array as="points">
              <mxPoint x="125" y="350" />
              <mxPoint x="415" y="350" />
            </Array>
          </mxGeometry>
        </mxCell>
        <mxCell id="nMoWCGT16thsGKDCYWbZ-29" value="RealLiteral" style="swimlane;fontStyle=0;childLayout=stackLayout;horizontal=1;startSize=26;fillColor=none;horizontalStack=0;resizeParent=1;resizeParentMax=0;resizeLast=0;collapsible=1;marginBottom=0;" parent="WIyWlLk6GJQsqaUBKTNV-1" vertex="1">
          <mxGeometry x="500" y="400" width="140" height="52" as="geometry" />
        </mxCell>
        <mxCell id="nMoWCGT16thsGKDCYWbZ-30" value="value: double" style="text;strokeColor=none;fillColor=none;align=left;verticalAlign=top;spacingLeft=4;spacingRight=4;overflow=hidden;rotatable=0;points=[[0,0.5],[1,0.5]];portConstraint=eastwest;" parent="nMoWCGT16thsGKDCYWbZ-29" vertex="1">
          <mxGeometry y="26" width="140" height="26" as="geometry" />
        </mxCell>
        <mxCell id="nMoWCGT16thsGKDCYWbZ-31" value="CharLiteral" style="swimlane;fontStyle=0;childLayout=stackLayout;horizontal=1;startSize=26;fillColor=none;horizontalStack=0;resizeParent=1;resizeParentMax=0;resizeLast=0;collapsible=1;marginBottom=0;" parent="WIyWlLk6GJQsqaUBKTNV-1" vertex="1">
          <mxGeometry x="620" y="522" width="140" height="52" as="geometry" />
        </mxCell>
        <mxCell id="nMoWCGT16thsGKDCYWbZ-32" value="value: char" style="text;strokeColor=none;fillColor=none;align=left;verticalAlign=top;spacingLeft=4;spacingRight=4;overflow=hidden;rotatable=0;points=[[0,0.5],[1,0.5]];portConstraint=eastwest;" parent="nMoWCGT16thsGKDCYWbZ-31" vertex="1">
          <mxGeometry y="26" width="140" height="26" as="geometry" />
        </mxCell>
        <mxCell id="nMoWCGT16thsGKDCYWbZ-33" value="" style="endArrow=block;dashed=1;endFill=0;endSize=12;html=1;rounded=0;entryX=0.5;entryY=1;entryDx=0;entryDy=0;exitX=0.5;exitY=0;exitDx=0;exitDy=0;" parent="WIyWlLk6GJQsqaUBKTNV-1" source="nMoWCGT16thsGKDCYWbZ-31" target="Z3i-YVO-exar2sjQs40s-0" edge="1">
          <mxGeometry width="160" relative="1" as="geometry">
            <mxPoint x="870" y="340" as="sourcePoint" />
            <mxPoint x="415" y="310" as="targetPoint" />
            <Array as="points">
              <mxPoint x="690" y="350" />
              <mxPoint x="415" y="350" />
            </Array>
          </mxGeometry>
        </mxCell>
        <mxCell id="nMoWCGT16thsGKDCYWbZ-34" value="" style="endArrow=block;dashed=1;endFill=0;endSize=12;html=1;rounded=0;exitX=0.326;exitY=0.056;exitDx=0;exitDy=0;exitPerimeter=0;entryX=0.5;entryY=1;entryDx=0;entryDy=0;" parent="WIyWlLk6GJQsqaUBKTNV-1" source="nMoWCGT16thsGKDCYWbZ-19" target="Z3i-YVO-exar2sjQs40s-0" edge="1">
          <mxGeometry width="160" relative="1" as="geometry">
            <mxPoint x="869" y="390" as="sourcePoint" />
            <mxPoint x="415" y="310" as="targetPoint" />
            <Array as="points">
              <mxPoint x="786" y="350" />
              <mxPoint x="415" y="350" />
            </Array>
          </mxGeometry>
        </mxCell>
        <mxCell id="gvIPyU559oMkztIoUwMv-0" value="Function" style="swimlane;fontStyle=0;childLayout=stackLayout;horizontal=1;startSize=26;fillColor=none;horizontalStack=0;resizeParent=1;resizeParentMax=0;resizeLast=0;collapsible=1;marginBottom=0;fontSize=12;" parent="WIyWlLk6GJQsqaUBKTNV-1" vertex="1">
          <mxGeometry x="140" y="522" width="140" height="30" as="geometry" />
        </mxCell>
        <mxCell id="gvIPyU559oMkztIoUwMv-4" value="" style="endArrow=block;dashed=1;endFill=0;endSize=12;html=1;rounded=0;fontSize=12;exitX=0.5;exitY=0;exitDx=0;exitDy=0;entryX=0.5;entryY=1;entryDx=0;entryDy=0;" parent="WIyWlLk6GJQsqaUBKTNV-1" source="gvIPyU559oMkztIoUwMv-0" target="Z3i-YVO-exar2sjQs40s-0" edge="1">
          <mxGeometry width="160" relative="1" as="geometry">
            <mxPoint x="180" y="470" as="sourcePoint" />
            <mxPoint x="415" y="310" as="targetPoint" />
            <Array as="points">
              <mxPoint x="210" y="350" />
              <mxPoint x="415" y="350" />
            </Array>
          </mxGeometry>
        </mxCell>
        <mxCell id="gvIPyU559oMkztIoUwMv-5" value="" style="endArrow=diamondThin;endFill=0;endSize=24;html=1;rounded=0;fontSize=12;exitX=0;exitY=0.75;exitDx=0;exitDy=0;entryX=0.75;entryY=0;entryDx=0;entryDy=0;" parent="WIyWlLk6GJQsqaUBKTNV-1" source="Z3i-YVO-exar2sjQs40s-0" target="gvIPyU559oMkztIoUwMv-0" edge="1">
          <mxGeometry width="160" relative="1" as="geometry">
            <mxPoint x="230" y="480" as="sourcePoint" />
            <mxPoint x="390" y="480" as="targetPoint" />
            <Array as="points">
              <mxPoint x="245" y="283" />
            </Array>
          </mxGeometry>
        </mxCell>
        <mxCell id="Gj7AhE4rvoOdKcpiToJ2-3" value="*" style="edgeLabel;html=1;align=center;verticalAlign=middle;resizable=0;points=[];" parent="gvIPyU559oMkztIoUwMv-5" vertex="1" connectable="0">
          <mxGeometry x="-0.9135" y="-1" relative="1" as="geometry">
            <mxPoint y="8" as="offset" />
          </mxGeometry>
        </mxCell>
        <mxCell id="m7aAF1R7Ywhszbv69M4v-0" value="arguments" style="edgeLabel;html=1;align=center;verticalAlign=middle;resizable=0;points=[];rotation=270;" parent="gvIPyU559oMkztIoUwMv-5" vertex="1" connectable="0">
          <mxGeometry x="0.5351" y="1" relative="1" as="geometry">
            <mxPoint x="-11" y="-14" as="offset" />
          </mxGeometry>
        </mxCell>
        <mxCell id="TPeAy4s2hqOSXqD4oksV-4" value="Comparison" style="swimlane;fontStyle=0;childLayout=stackLayout;horizontal=1;startSize=26;fillColor=none;horizontalStack=0;resizeParent=1;resizeParentMax=0;resizeLast=0;collapsible=1;marginBottom=0;" parent="WIyWlLk6GJQsqaUBKTNV-1" vertex="1">
          <mxGeometry x="-100" y="522" width="140" height="52" as="geometry" />
        </mxCell>
        <mxCell id="TPeAy4s2hqOSXqD4oksV-5" value="operator: String" style="text;strokeColor=none;fillColor=none;align=left;verticalAlign=top;spacingLeft=4;spacingRight=4;overflow=hidden;rotatable=0;points=[[0,0.5],[1,0.5]];portConstraint=eastwest;" parent="TPeAy4s2hqOSXqD4oksV-4" vertex="1">
          <mxGeometry y="26" width="140" height="26" as="geometry" />
        </mxCell>
        <mxCell id="TPeAy4s2hqOSXqD4oksV-8" value="" style="endArrow=diamondThin;endFill=0;endSize=24;html=1;rounded=0;entryX=0.5;entryY=0;entryDx=0;entryDy=0;exitX=0;exitY=0.25;exitDx=0;exitDy=0;" parent="WIyWlLk6GJQsqaUBKTNV-1" source="Z3i-YVO-exar2sjQs40s-0" target="TPeAy4s2hqOSXqD4oksV-4" edge="1">
          <mxGeometry width="160" relative="1" as="geometry">
            <mxPoint x="210" y="140" as="sourcePoint" />
            <mxPoint x="90" y="417" as="targetPoint" />
            <Array as="points">
              <mxPoint x="-30" y="230" />
            </Array>
          </mxGeometry>
        </mxCell>
        <mxCell id="TPeAy4s2hqOSXqD4oksV-9" value="2" style="edgeLabel;html=1;align=center;verticalAlign=middle;resizable=0;points=[];" parent="TPeAy4s2hqOSXqD4oksV-8" vertex="1" connectable="0">
          <mxGeometry x="-0.7756" relative="1" as="geometry">
            <mxPoint x="52" y="-8" as="offset" />
          </mxGeometry>
        </mxCell>
        <mxCell id="TPeAy4s2hqOSXqD4oksV-10" value="LogicComparison" style="swimlane;fontStyle=0;childLayout=stackLayout;horizontal=1;startSize=26;fillColor=none;horizontalStack=0;resizeParent=1;resizeParentMax=0;resizeLast=0;collapsible=1;marginBottom=0;" parent="WIyWlLk6GJQsqaUBKTNV-1" vertex="1">
          <mxGeometry x="-220" y="400" width="140" height="52" as="geometry" />
        </mxCell>
        <mxCell id="TPeAy4s2hqOSXqD4oksV-11" value="operator: String" style="text;strokeColor=none;fillColor=none;align=left;verticalAlign=top;spacingLeft=4;spacingRight=4;overflow=hidden;rotatable=0;points=[[0,0.5],[1,0.5]];portConstraint=eastwest;" parent="TPeAy4s2hqOSXqD4oksV-10" vertex="1">
          <mxGeometry y="26" width="140" height="26" as="geometry" />
        </mxCell>
        <mxCell id="TPeAy4s2hqOSXqD4oksV-12" value="" style="endArrow=block;dashed=1;endFill=0;endSize=12;html=1;rounded=0;entryX=0.5;entryY=1;entryDx=0;entryDy=0;exitX=0.75;exitY=0;exitDx=0;exitDy=0;" parent="WIyWlLk6GJQsqaUBKTNV-1" source="TPeAy4s2hqOSXqD4oksV-4" target="Z3i-YVO-exar2sjQs40s-0" edge="1">
          <mxGeometry width="160" relative="1" as="geometry">
            <mxPoint x="124" y="400" as="sourcePoint" />
            <mxPoint x="415" y="310" as="targetPoint" />
            <Array as="points">
              <mxPoint x="5" y="350" />
              <mxPoint x="415" y="350" />
            </Array>
          </mxGeometry>
        </mxCell>
        <mxCell id="TPeAy4s2hqOSXqD4oksV-13" value="" style="endArrow=block;dashed=1;endFill=0;endSize=12;html=1;rounded=0;exitX=0.5;exitY=0;exitDx=0;exitDy=0;entryX=0.5;entryY=1;entryDx=0;entryDy=0;" parent="WIyWlLk6GJQsqaUBKTNV-1" source="TPeAy4s2hqOSXqD4oksV-10" target="Z3i-YVO-exar2sjQs40s-0" edge="1">
          <mxGeometry width="160" relative="1" as="geometry">
            <mxPoint x="-120" y="390" as="sourcePoint" />
            <mxPoint x="415" y="310" as="targetPoint" />
            <Array as="points">
              <mxPoint x="-150" y="350" />
              <mxPoint x="170" y="350" />
              <mxPoint x="415" y="350" />
            </Array>
          </mxGeometry>
        </mxCell>
        <mxCell id="TPeAy4s2hqOSXqD4oksV-16" value="" style="endArrow=diamondThin;endFill=0;endSize=24;html=1;rounded=0;exitX=0.25;exitY=0;exitDx=0;exitDy=0;entryX=0.75;entryY=0;entryDx=0;entryDy=0;" parent="WIyWlLk6GJQsqaUBKTNV-1" source="Z3i-YVO-exar2sjQs40s-0" target="TPeAy4s2hqOSXqD4oksV-10" edge="1">
          <mxGeometry width="160" relative="1" as="geometry">
            <mxPoint x="250" y="250" as="sourcePoint" />
            <mxPoint x="-140" y="482" as="targetPoint" />
            <Array as="points">
              <mxPoint x="368" y="160" />
              <mxPoint x="-115" y="160" />
            </Array>
          </mxGeometry>
        </mxCell>
        <mxCell id="TPeAy4s2hqOSXqD4oksV-17" value="2" style="edgeLabel;html=1;align=center;verticalAlign=middle;resizable=0;points=[];" parent="TPeAy4s2hqOSXqD4oksV-16" vertex="1" connectable="0">
          <mxGeometry x="-0.7756" relative="1" as="geometry">
            <mxPoint x="35" y="27" as="offset" />
          </mxGeometry>
        </mxCell>
        <mxCell id="TPeAy4s2hqOSXqD4oksV-18" value="Not" style="swimlane;fontStyle=0;childLayout=stackLayout;horizontal=1;startSize=26;fillColor=none;horizontalStack=0;resizeParent=1;resizeParentMax=0;resizeLast=0;collapsible=1;marginBottom=0;" parent="WIyWlLk6GJQsqaUBKTNV-1" vertex="1">
          <mxGeometry x="-340" y="522" width="140" height="32" as="geometry" />
        </mxCell>
        <mxCell id="TPeAy4s2hqOSXqD4oksV-22" value="" style="endArrow=block;dashed=1;endFill=0;endSize=12;html=1;rounded=0;exitX=0.5;exitY=0;exitDx=0;exitDy=0;entryX=0.5;entryY=1;entryDx=0;entryDy=0;" parent="WIyWlLk6GJQsqaUBKTNV-1" source="TPeAy4s2hqOSXqD4oksV-18" target="Z3i-YVO-exar2sjQs40s-0" edge="1">
          <mxGeometry width="160" relative="1" as="geometry">
            <mxPoint x="-290" y="340" as="sourcePoint" />
            <mxPoint x="415" y="310" as="targetPoint" />
            <Array as="points">
              <mxPoint x="-270" y="350" />
              <mxPoint x="415" y="350" />
            </Array>
          </mxGeometry>
        </mxCell>
        <mxCell id="TPeAy4s2hqOSXqD4oksV-23" value="" style="endArrow=diamondThin;endFill=0;endSize=24;html=1;rounded=0;entryX=0.25;entryY=0;entryDx=0;entryDy=0;exitX=0.5;exitY=0;exitDx=0;exitDy=0;" parent="WIyWlLk6GJQsqaUBKTNV-1" source="Z3i-YVO-exar2sjQs40s-0" target="TPeAy4s2hqOSXqD4oksV-18" edge="1">
          <mxGeometry width="160" relative="1" as="geometry">
            <mxPoint x="-350" y="400" as="sourcePoint" />
            <mxPoint x="-190" y="400" as="targetPoint" />
            <Array as="points">
              <mxPoint x="415" y="140" />
              <mxPoint x="-305" y="140" />
            </Array>
          </mxGeometry>
        </mxCell>
        <mxCell id="TPeAy4s2hqOSXqD4oksV-24" value="1" style="edgeLabel;html=1;align=center;verticalAlign=middle;resizable=0;points=[];" parent="TPeAy4s2hqOSXqD4oksV-23" vertex="1" connectable="0">
          <mxGeometry x="-0.9672" y="-2" relative="1" as="geometry">
            <mxPoint x="3" as="offset" />
          </mxGeometry>
        </mxCell>
        <mxCell id="TPeAy4s2hqOSXqD4oksV-25" value="Cast" style="swimlane;fontStyle=0;childLayout=stackLayout;horizontal=1;startSize=26;fillColor=none;horizontalStack=0;resizeParent=1;resizeParentMax=0;resizeLast=0;collapsible=1;marginBottom=0;" parent="WIyWlLk6GJQsqaUBKTNV-1" vertex="1">
          <mxGeometry x="860" y="522" width="140" height="33" as="geometry" />
        </mxCell>
        <mxCell id="TPeAy4s2hqOSXqD4oksV-29" value="" style="endArrow=block;dashed=1;endFill=0;endSize=12;html=1;rounded=0;exitX=0.5;exitY=0;exitDx=0;exitDy=0;entryX=0.5;entryY=1;entryDx=0;entryDy=0;" parent="WIyWlLk6GJQsqaUBKTNV-1" source="TPeAy4s2hqOSXqD4oksV-25" target="Z3i-YVO-exar2sjQs40s-0" edge="1">
          <mxGeometry width="160" relative="1" as="geometry">
            <mxPoint x="920" y="460" as="sourcePoint" />
            <mxPoint x="415" y="310" as="targetPoint" />
            <Array as="points">
              <mxPoint x="930" y="350" />
              <mxPoint x="415" y="350" />
            </Array>
          </mxGeometry>
        </mxCell>
        <mxCell id="TPeAy4s2hqOSXqD4oksV-30" value="" style="endArrow=diamondThin;endFill=0;endSize=24;html=1;rounded=0;entryX=0.75;entryY=0;entryDx=0;entryDy=0;exitX=1;exitY=0.5;exitDx=0;exitDy=0;" parent="WIyWlLk6GJQsqaUBKTNV-1" source="Z3i-YVO-exar2sjQs40s-0" target="TPeAy4s2hqOSXqD4oksV-25" edge="1">
          <mxGeometry width="160" relative="1" as="geometry">
            <mxPoint x="480" y="200" as="sourcePoint" />
            <mxPoint x="1150" y="330" as="targetPoint" />
            <Array as="points">
              <mxPoint x="965" y="260" />
            </Array>
          </mxGeometry>
        </mxCell>
        <mxCell id="TPeAy4s2hqOSXqD4oksV-31" value="1" style="edgeLabel;html=1;align=center;verticalAlign=middle;resizable=0;points=[];" parent="TPeAy4s2hqOSXqD4oksV-30" vertex="1" connectable="0">
          <mxGeometry x="-0.9567" y="-2" relative="1" as="geometry">
            <mxPoint x="-10" y="-11" as="offset" />
          </mxGeometry>
        </mxCell>
        <mxCell id="TPeAy4s2hqOSXqD4oksV-32" value="«interface»&lt;br&gt;&lt;b&gt;Type&lt;/b&gt;" style="html=1;" parent="WIyWlLk6GJQsqaUBKTNV-1" vertex="1">
          <mxGeometry x="1100" y="513" width="110" height="50" as="geometry" />
        </mxCell>
        <mxCell id="TPeAy4s2hqOSXqD4oksV-33" value="" style="endArrow=diamondThin;endFill=0;endSize=24;html=1;rounded=0;entryX=1;entryY=0.5;entryDx=0;entryDy=0;exitX=0;exitY=0.5;exitDx=0;exitDy=0;" parent="WIyWlLk6GJQsqaUBKTNV-1" source="TPeAy4s2hqOSXqD4oksV-32" target="TPeAy4s2hqOSXqD4oksV-25" edge="1">
          <mxGeometry width="160" relative="1" as="geometry">
            <mxPoint x="1070" y="550" as="sourcePoint" />
            <mxPoint x="1050" y="580" as="targetPoint" />
          </mxGeometry>
        </mxCell>
        <mxCell id="TPeAy4s2hqOSXqD4oksV-34" value="1" style="edgeLabel;html=1;align=center;verticalAlign=middle;resizable=0;points=[];" parent="TPeAy4s2hqOSXqD4oksV-33" vertex="1" connectable="0">
          <mxGeometry x="-0.7119" y="1" relative="1" as="geometry">
            <mxPoint x="4" y="-10" as="offset" />
          </mxGeometry>
        </mxCell>
        <mxCell id="TPeAy4s2hqOSXqD4oksV-35" value="ArrayAccess" style="swimlane;fontStyle=0;childLayout=stackLayout;horizontal=1;startSize=26;fillColor=none;horizontalStack=0;resizeParent=1;resizeParentMax=0;resizeLast=0;collapsible=1;marginBottom=0;" parent="WIyWlLk6GJQsqaUBKTNV-1" vertex="1">
          <mxGeometry x="980" y="400" width="140" height="30" as="geometry" />
        </mxCell>
        <mxCell id="TPeAy4s2hqOSXqD4oksV-39" value="" style="endArrow=block;dashed=1;endFill=0;endSize=12;html=1;rounded=0;exitX=0.5;exitY=0;exitDx=0;exitDy=0;entryX=0.5;entryY=1;entryDx=0;entryDy=0;" parent="WIyWlLk6GJQsqaUBKTNV-1" source="TPeAy4s2hqOSXqD4oksV-35" target="Z3i-YVO-exar2sjQs40s-0" edge="1">
          <mxGeometry width="160" relative="1" as="geometry">
            <mxPoint x="1080" y="290" as="sourcePoint" />
            <mxPoint x="415" y="310" as="targetPoint" />
            <Array as="points">
              <mxPoint x="1050" y="350" />
              <mxPoint x="415" y="350" />
            </Array>
          </mxGeometry>
        </mxCell>
        <mxCell id="TPeAy4s2hqOSXqD4oksV-40" value="" style="endArrow=diamondThin;endFill=0;endSize=24;html=1;rounded=0;entryX=0.75;entryY=0;entryDx=0;entryDy=0;exitX=0.75;exitY=0;exitDx=0;exitDy=0;" parent="WIyWlLk6GJQsqaUBKTNV-1" source="Z3i-YVO-exar2sjQs40s-0" target="TPeAy4s2hqOSXqD4oksV-35" edge="1">
          <mxGeometry width="160" relative="1" as="geometry">
            <mxPoint x="1030" y="250" as="sourcePoint" />
            <mxPoint x="1190" y="250" as="targetPoint" />
            <Array as="points">
              <mxPoint x="463" y="160" />
              <mxPoint x="1085" y="160" />
            </Array>
          </mxGeometry>
        </mxCell>
        <mxCell id="TPeAy4s2hqOSXqD4oksV-41" value="2" style="edgeLabel;html=1;align=center;verticalAlign=middle;resizable=0;points=[];" parent="TPeAy4s2hqOSXqD4oksV-40" vertex="1" connectable="0">
          <mxGeometry x="-0.9586" relative="1" as="geometry">
            <mxPoint x="7" as="offset" />
          </mxGeometry>
        </mxCell>
        <mxCell id="TPeAy4s2hqOSXqD4oksV-42" value="FieldAccess" style="swimlane;fontStyle=0;childLayout=stackLayout;horizontal=1;startSize=26;fillColor=none;horizontalStack=0;resizeParent=1;resizeParentMax=0;resizeLast=0;collapsible=1;marginBottom=0;" parent="WIyWlLk6GJQsqaUBKTNV-1" vertex="1">
          <mxGeometry x="1190" y="400" width="140" height="52" as="geometry" />
        </mxCell>
        <mxCell id="TPeAy4s2hqOSXqD4oksV-47" value="name: String" style="text;strokeColor=none;fillColor=none;align=left;verticalAlign=top;spacingLeft=4;spacingRight=4;overflow=hidden;rotatable=0;points=[[0,0.5],[1,0.5]];portConstraint=eastwest;" parent="TPeAy4s2hqOSXqD4oksV-42" vertex="1">
          <mxGeometry y="26" width="140" height="26" as="geometry" />
        </mxCell>
        <mxCell id="TPeAy4s2hqOSXqD4oksV-43" value="" style="endArrow=block;dashed=1;endFill=0;endSize=12;html=1;rounded=0;exitX=0.5;exitY=0;exitDx=0;exitDy=0;entryX=0.5;entryY=1;entryDx=0;entryDy=0;" parent="WIyWlLk6GJQsqaUBKTNV-1" source="TPeAy4s2hqOSXqD4oksV-42" target="Z3i-YVO-exar2sjQs40s-0" edge="1">
          <mxGeometry width="160" relative="1" as="geometry">
            <mxPoint x="1170" y="290" as="sourcePoint" />
            <mxPoint x="415" y="310" as="targetPoint" />
            <Array as="points">
              <mxPoint x="1260" y="350" />
              <mxPoint x="415" y="350" />
            </Array>
          </mxGeometry>
        </mxCell>
        <mxCell id="TPeAy4s2hqOSXqD4oksV-44" value="" style="endArrow=diamondThin;endFill=0;endSize=24;html=1;rounded=0;entryX=0.75;entryY=0;entryDx=0;entryDy=0;exitX=1;exitY=0.25;exitDx=0;exitDy=0;" parent="WIyWlLk6GJQsqaUBKTNV-1" source="Z3i-YVO-exar2sjQs40s-0" edge="1">
          <mxGeometry width="160" relative="1" as="geometry">
            <mxPoint x="650" y="260" as="sourcePoint" />
            <mxPoint x="1292" y="400" as="targetPoint" />
            <Array as="points">
              <mxPoint x="1292" y="228" />
            </Array>
          </mxGeometry>
        </mxCell>
        <mxCell id="TPeAy4s2hqOSXqD4oksV-46" value="1" style="edgeLabel;html=1;align=center;verticalAlign=middle;resizable=0;points=[];" parent="TPeAy4s2hqOSXqD4oksV-44" vertex="1" connectable="0">
          <mxGeometry x="-0.9522" relative="1" as="geometry">
            <mxPoint x="-16" y="-9" as="offset" />
          </mxGeometry>
        </mxCell>
        <mxCell id="NuPHXIeFH6U-soONOC1r-0" value="" style="endArrow=diamondThin;endFill=0;endSize=24;html=1;rounded=0;entryX=1;entryY=0.5;entryDx=0;entryDy=0;exitX=1;exitY=0.25;exitDx=0;exitDy=0;" parent="WIyWlLk6GJQsqaUBKTNV-1" source="nMoWCGT16thsGKDCYWbZ-11" target="gvIPyU559oMkztIoUwMv-0" edge="1">
          <mxGeometry width="160" relative="1" as="geometry">
            <mxPoint x="280" y="490" as="sourcePoint" />
            <mxPoint x="440" y="490" as="targetPoint" />
            <Array as="points">
              <mxPoint x="430" y="413" />
              <mxPoint x="430" y="500" />
              <mxPoint x="360" y="500" />
              <mxPoint x="360" y="537" />
            </Array>
          </mxGeometry>
        </mxCell>
        <mxCell id="NuPHXIeFH6U-soONOC1r-1" value="1" style="edgeLabel;html=1;align=center;verticalAlign=middle;resizable=0;points=[];" parent="NuPHXIeFH6U-soONOC1r-0" vertex="1" connectable="0">
          <mxGeometry x="-0.8656" y="-2" relative="1" as="geometry">
            <mxPoint x="-11" y="8" as="offset" />
          </mxGeometry>
        </mxCell>
        <mxCell id="JyepzRnOwWFlfpcBTFyY-0" value="&lt;div style=&quot;text-align: center;&quot;&gt;&lt;span style=&quot;background-color: initial;&quot;&gt;«&lt;/span&gt;&lt;i style=&quot;background-color: initial;&quot;&gt;Interface&lt;/i&gt;&lt;span style=&quot;background-color: initial;&quot;&gt;»&lt;/span&gt;&lt;/div&gt;&lt;div style=&quot;text-align: center;&quot;&gt;&lt;b style=&quot;background-color: initial;&quot;&gt;Definition&lt;/b&gt;&lt;/div&gt;&lt;hr size=&quot;1&quot;&gt;&lt;p style=&quot;margin:0px;margin-left:4px;&quot;&gt;getType(): Type&lt;/p&gt;&lt;p style=&quot;margin:0px;margin-left:4px;&quot;&gt;getName(): String&lt;/p&gt;&lt;p style=&quot;margin:0px;margin-left:4px;&quot;&gt;getScope(): int&lt;/p&gt;&lt;p style=&quot;margin:0px;margin-left:4px;&quot;&gt;setScope(int)&lt;/p&gt;" style="verticalAlign=top;align=left;overflow=fill;fontSize=12;fontFamily=Helvetica;html=1;" parent="WIyWlLk6GJQsqaUBKTNV-1" vertex="1">
          <mxGeometry x="235" y="600" width="190" height="100" as="geometry" />
        </mxCell>
        <mxCell id="JyepzRnOwWFlfpcBTFyY-1" value="" style="endArrow=open;endFill=1;endSize=12;html=1;rounded=0;entryX=0.5;entryY=0;entryDx=0;entryDy=0;" parent="WIyWlLk6GJQsqaUBKTNV-1" source="nMoWCGT16thsGKDCYWbZ-12" target="JyepzRnOwWFlfpcBTFyY-0" edge="1">
          <mxGeometry width="160" relative="1" as="geometry">
            <mxPoint x="330" y="460" as="sourcePoint" />
            <mxPoint x="-10" y="650" as="targetPoint" />
          </mxGeometry>
        </mxCell>
        <mxCell id="Z3i-YVO-exar2sjQs40s-0" value="&lt;p style=&quot;margin:0px;margin-top:4px;text-align:center;&quot;&gt;&lt;i&gt;&amp;lt;&amp;lt;Interface&amp;gt;&amp;gt;&lt;/i&gt;&lt;br&gt;&lt;b&gt;Expression&lt;/b&gt;&lt;/p&gt;&lt;hr size=&quot;1&quot;&gt;&lt;p style=&quot;margin:0px;margin-left:4px;&quot;&gt;getType(): Type&lt;/p&gt;&lt;p style=&quot;margin:0px;margin-left:4px;&quot;&gt;setType(Type)&lt;/p&gt;&lt;p style=&quot;margin:0px;margin-left:4px;&quot;&gt;getIsLValue(): boolean&lt;/p&gt;&lt;p style=&quot;margin:0px;margin-left:4px;&quot;&gt;setIsLValue(boolean)&lt;/p&gt;" style="verticalAlign=top;align=left;overflow=fill;fontSize=12;fontFamily=Helvetica;html=1;whiteSpace=wrap;" parent="WIyWlLk6GJQsqaUBKTNV-1" vertex="1">
          <mxGeometry x="320" y="200" width="190" height="110" as="geometry" />
        </mxCell>
      </root>
    </mxGraphModel>
  </diagram>
  <diagram id="nEM0ZCsXeITf_BapBsgY" name="Visitors">
    <mxGraphModel dx="1302" dy="698" grid="1" gridSize="10" guides="1" tooltips="1" connect="1" arrows="1" fold="1" page="1" pageScale="1" pageWidth="827" pageHeight="1169" math="0" shadow="0">
      <root>
        <mxCell id="0" />
        <mxCell id="1" parent="0" />
        <mxCell id="8Ikhulkjswf7_qyzr0R4-1" value="«interface»&lt;br&gt;&lt;b&gt;Visitor&amp;lt;PT,RT&amp;gt;&lt;/b&gt;" style="html=1;whiteSpace=wrap;" parent="1" vertex="1">
          <mxGeometry x="350" y="20" width="110" height="50" as="geometry" />
        </mxCell>
        <mxCell id="8Ikhulkjswf7_qyzr0R4-2" value="ExecuteCGVisitor" style="swimlane;fontStyle=0;childLayout=stackLayout;horizontal=1;startSize=26;fillColor=none;horizontalStack=0;resizeParent=1;resizeParentMax=0;resizeLast=0;collapsible=1;marginBottom=0;whiteSpace=wrap;html=1;" parent="1" vertex="1">
          <mxGeometry x="450" y="150" width="140" height="30" as="geometry" />
        </mxCell>
        <mxCell id="8Ikhulkjswf7_qyzr0R4-3" value="" style="endArrow=block;dashed=1;endFill=0;endSize=12;html=1;rounded=0;entryX=0.5;entryY=1;entryDx=0;entryDy=0;exitX=0.5;exitY=0;exitDx=0;exitDy=0;" parent="1" source="8Ikhulkjswf7_qyzr0R4-2" target="8Ikhulkjswf7_qyzr0R4-1" edge="1">
          <mxGeometry width="160" relative="1" as="geometry">
            <mxPoint x="330" y="140" as="sourcePoint" />
            <mxPoint x="490" y="140" as="targetPoint" />
            <Array as="points">
              <mxPoint x="520" y="120" />
              <mxPoint x="405" y="120" />
            </Array>
          </mxGeometry>
        </mxCell>
        <mxCell id="8Ikhulkjswf7_qyzr0R4-4" value="«interface»&lt;br&gt;&lt;b&gt;ASTNode&lt;/b&gt;" style="html=1;whiteSpace=wrap;" parent="1" vertex="1">
          <mxGeometry x="600" y="20" width="110" height="50" as="geometry" />
        </mxCell>
        <mxCell id="8Ikhulkjswf7_qyzr0R4-5" value="Use" style="endArrow=open;endSize=12;dashed=1;html=1;rounded=0;entryX=1;entryY=0.5;entryDx=0;entryDy=0;exitX=0;exitY=0.5;exitDx=0;exitDy=0;" parent="1" source="8Ikhulkjswf7_qyzr0R4-4" target="8Ikhulkjswf7_qyzr0R4-1" edge="1">
          <mxGeometry width="160" relative="1" as="geometry">
            <mxPoint x="480" y="70" as="sourcePoint" />
            <mxPoint x="640" y="70" as="targetPoint" />
          </mxGeometry>
        </mxCell>
        <mxCell id="clYLtdxCQJqoPPtnEMTA-1" value="IdentificationVisitor" style="swimlane;fontStyle=0;childLayout=stackLayout;horizontal=1;startSize=26;fillColor=none;horizontalStack=0;resizeParent=1;resizeParentMax=0;resizeLast=0;collapsible=1;marginBottom=0;whiteSpace=wrap;html=1;" parent="1" vertex="1">
          <mxGeometry x="230" y="150" width="140" height="30" as="geometry" />
        </mxCell>
        <mxCell id="clYLtdxCQJqoPPtnEMTA-5" value="" style="endArrow=block;dashed=1;endFill=0;endSize=12;html=1;rounded=0;entryX=0.5;entryY=1;entryDx=0;entryDy=0;exitX=0.5;exitY=0;exitDx=0;exitDy=0;" parent="1" source="clYLtdxCQJqoPPtnEMTA-1" target="8Ikhulkjswf7_qyzr0R4-1" edge="1">
          <mxGeometry width="160" relative="1" as="geometry">
            <mxPoint x="110" y="100" as="sourcePoint" />
            <mxPoint x="270" y="100" as="targetPoint" />
            <Array as="points">
              <mxPoint x="300" y="120" />
              <mxPoint x="405" y="120" />
            </Array>
          </mxGeometry>
        </mxCell>
        <mxCell id="NsUbHjlDMBBkA3oZ2qyj-1" value="&lt;div style=&quot;text-align: center;&quot;&gt;&lt;span style=&quot;background-color: initial;&quot;&gt;«&lt;/span&gt;&lt;i style=&quot;background-color: initial;&quot;&gt;Interface&lt;/i&gt;&lt;span style=&quot;background-color: initial;&quot;&gt;»&lt;/span&gt;&lt;/div&gt;&lt;div style=&quot;text-align: center;&quot;&gt;&lt;b style=&quot;background-color: initial;&quot;&gt;Definition&lt;/b&gt;&lt;/div&gt;&lt;hr size=&quot;1&quot;&gt;&lt;p style=&quot;margin:0px;margin-left:4px;&quot;&gt;getType(): Type&lt;/p&gt;&lt;p style=&quot;margin:0px;margin-left:4px;&quot;&gt;getName(): String&lt;/p&gt;&lt;p style=&quot;margin:0px;margin-left:4px;&quot;&gt;getScope(): int&lt;/p&gt;&lt;p style=&quot;margin:0px;margin-left:4px;&quot;&gt;setScope(int)&lt;/p&gt;" style="verticalAlign=top;align=left;overflow=fill;fontSize=12;fontFamily=Helvetica;html=1;" parent="1" vertex="1">
          <mxGeometry x="450" y="390" width="190" height="100" as="geometry" />
        </mxCell>
        <mxCell id="NsUbHjlDMBBkA3oZ2qyj-2" value="SymbolTable" style="swimlane;fontStyle=0;childLayout=stackLayout;horizontal=1;startSize=26;fillColor=none;horizontalStack=0;resizeParent=1;resizeParentMax=0;resizeLast=0;collapsible=1;marginBottom=0;whiteSpace=wrap;html=1;" parent="1" vertex="1">
          <mxGeometry x="197.5" y="300" width="205" height="164" as="geometry" />
        </mxCell>
        <mxCell id="NsUbHjlDMBBkA3oZ2qyj-3" value="table:List&amp;lt;Map&amp;lt;String,Definition&amp;gt;&amp;gt;" style="text;strokeColor=none;fillColor=none;align=left;verticalAlign=top;spacingLeft=4;spacingRight=4;overflow=hidden;rotatable=0;points=[[0,0.5],[1,0.5]];portConstraint=eastwest;whiteSpace=wrap;html=1;" parent="NsUbHjlDMBBkA3oZ2qyj-2" vertex="1">
          <mxGeometry y="26" width="205" height="26" as="geometry" />
        </mxCell>
        <mxCell id="NsUbHjlDMBBkA3oZ2qyj-4" value="" style="line;strokeWidth=1;fillColor=none;align=left;verticalAlign=middle;spacingTop=-1;spacingLeft=3;spacingRight=3;rotatable=0;labelPosition=right;points=[];portConstraint=eastwest;strokeColor=inherit;" parent="NsUbHjlDMBBkA3oZ2qyj-2" vertex="1">
          <mxGeometry y="52" width="205" height="8" as="geometry" />
        </mxCell>
        <mxCell id="NsUbHjlDMBBkA3oZ2qyj-5" value="insert(Definition):bool" style="text;strokeColor=none;fillColor=none;align=left;verticalAlign=top;spacingLeft=4;spacingRight=4;overflow=hidden;rotatable=0;points=[[0,0.5],[1,0.5]];portConstraint=eastwest;whiteSpace=wrap;html=1;" parent="NsUbHjlDMBBkA3oZ2qyj-2" vertex="1">
          <mxGeometry y="60" width="205" height="26" as="geometry" />
        </mxCell>
        <mxCell id="NsUbHjlDMBBkA3oZ2qyj-6" value="find(String):Definition" style="text;strokeColor=none;fillColor=none;align=left;verticalAlign=top;spacingLeft=4;spacingRight=4;overflow=hidden;rotatable=0;points=[[0,0.5],[1,0.5]];portConstraint=eastwest;whiteSpace=wrap;html=1;" parent="NsUbHjlDMBBkA3oZ2qyj-2" vertex="1">
          <mxGeometry y="86" width="205" height="26" as="geometry" />
        </mxCell>
        <mxCell id="NsUbHjlDMBBkA3oZ2qyj-7" value="set()" style="text;strokeColor=none;fillColor=none;align=left;verticalAlign=top;spacingLeft=4;spacingRight=4;overflow=hidden;rotatable=0;points=[[0,0.5],[1,0.5]];portConstraint=eastwest;whiteSpace=wrap;html=1;" parent="NsUbHjlDMBBkA3oZ2qyj-2" vertex="1">
          <mxGeometry y="112" width="205" height="26" as="geometry" />
        </mxCell>
        <mxCell id="NsUbHjlDMBBkA3oZ2qyj-8" value="reset()" style="text;strokeColor=none;fillColor=none;align=left;verticalAlign=top;spacingLeft=4;spacingRight=4;overflow=hidden;rotatable=0;points=[[0,0.5],[1,0.5]];portConstraint=eastwest;whiteSpace=wrap;html=1;" parent="NsUbHjlDMBBkA3oZ2qyj-2" vertex="1">
          <mxGeometry y="138" width="205" height="26" as="geometry" />
        </mxCell>
        <mxCell id="NsUbHjlDMBBkA3oZ2qyj-11" value="" style="endArrow=diamondThin;endFill=0;endSize=24;html=1;rounded=0;entryX=0.5;entryY=1;entryDx=0;entryDy=0;exitX=0.5;exitY=0;exitDx=0;exitDy=0;" parent="1" source="NsUbHjlDMBBkA3oZ2qyj-2" target="clYLtdxCQJqoPPtnEMTA-1" edge="1">
          <mxGeometry width="160" relative="1" as="geometry">
            <mxPoint x="40" y="210" as="sourcePoint" />
            <mxPoint x="200" y="210" as="targetPoint" />
          </mxGeometry>
        </mxCell>
        <mxCell id="oedz7nzNhSVInbYLQx-i-13" value="1" style="edgeLabel;html=1;align=center;verticalAlign=middle;resizable=0;points=[];" vertex="1" connectable="0" parent="NsUbHjlDMBBkA3oZ2qyj-11">
          <mxGeometry x="-0.7806" y="-3" relative="1" as="geometry">
            <mxPoint as="offset" />
          </mxGeometry>
        </mxCell>
        <mxCell id="NsUbHjlDMBBkA3oZ2qyj-12" value="id" style="html=1;rounded=1;absoluteArcSize=1;arcSize=10;whiteSpace=wrap;" parent="1" vertex="1">
          <mxGeometry x="402.5" y="326" width="80" height="30" as="geometry" />
        </mxCell>
        <mxCell id="NsUbHjlDMBBkA3oZ2qyj-13" value="" style="endArrow=open;html=1;rounded=0;align=center;verticalAlign=top;endFill=0;labelBackgroundColor=none;endSize=6;entryX=0.5;entryY=0;entryDx=0;entryDy=0;" parent="1" source="NsUbHjlDMBBkA3oZ2qyj-12" target="NsUbHjlDMBBkA3oZ2qyj-1" edge="1">
          <mxGeometry relative="1" as="geometry">
            <mxPoint x="290" y="434" as="targetPoint" />
            <Array as="points">
              <mxPoint x="545" y="340" />
            </Array>
          </mxGeometry>
        </mxCell>
        <mxCell id="M5KRURvyMSgcRtwDd2iS-1" value="ValueCGVisitor" style="swimlane;fontStyle=0;childLayout=stackLayout;horizontal=1;startSize=26;fillColor=none;horizontalStack=0;resizeParent=1;resizeParentMax=0;resizeLast=0;collapsible=1;marginBottom=0;whiteSpace=wrap;html=1;" parent="1" vertex="1">
          <mxGeometry x="670" y="150" width="140" height="30" as="geometry" />
        </mxCell>
        <mxCell id="M5KRURvyMSgcRtwDd2iS-2" value="" style="endArrow=block;dashed=1;endFill=0;endSize=12;html=1;rounded=0;entryX=0.5;entryY=1;entryDx=0;entryDy=0;exitX=0.5;exitY=0;exitDx=0;exitDy=0;" parent="1" source="M5KRURvyMSgcRtwDd2iS-1" target="8Ikhulkjswf7_qyzr0R4-1" edge="1">
          <mxGeometry width="160" relative="1" as="geometry">
            <mxPoint x="550" y="110" as="sourcePoint" />
            <mxPoint x="710" y="110" as="targetPoint" />
            <Array as="points">
              <mxPoint x="740" y="120" />
              <mxPoint x="405" y="120" />
            </Array>
          </mxGeometry>
        </mxCell>
        <mxCell id="oedz7nzNhSVInbYLQx-i-1" value="TypeCheckingVisitor" style="swimlane;fontStyle=0;childLayout=stackLayout;horizontal=1;startSize=26;fillColor=none;horizontalStack=0;resizeParent=1;resizeParentMax=0;resizeLast=0;collapsible=1;marginBottom=0;whiteSpace=wrap;html=1;" vertex="1" parent="1">
          <mxGeometry x="10" y="150" width="140" height="30" as="geometry" />
        </mxCell>
        <mxCell id="oedz7nzNhSVInbYLQx-i-2" value="OffserVisitor" style="swimlane;fontStyle=0;childLayout=stackLayout;horizontal=1;startSize=26;fillColor=none;horizontalStack=0;resizeParent=1;resizeParentMax=0;resizeLast=0;collapsible=1;marginBottom=0;whiteSpace=wrap;html=1;" vertex="1" parent="1">
          <mxGeometry x="350" y="220" width="140" height="30" as="geometry" />
        </mxCell>
        <mxCell id="oedz7nzNhSVInbYLQx-i-3" value="AddressCGVisitor" style="swimlane;fontStyle=0;childLayout=stackLayout;horizontal=1;startSize=26;fillColor=none;horizontalStack=0;resizeParent=1;resizeParentMax=0;resizeLast=0;collapsible=1;marginBottom=0;whiteSpace=wrap;html=1;" vertex="1" parent="1">
          <mxGeometry x="570" y="220" width="140" height="30" as="geometry" />
        </mxCell>
        <mxCell id="oedz7nzNhSVInbYLQx-i-4" value="" style="endArrow=block;dashed=1;endFill=0;endSize=12;html=1;rounded=0;exitX=0.5;exitY=0;exitDx=0;exitDy=0;entryX=0.5;entryY=1;entryDx=0;entryDy=0;" edge="1" parent="1" source="oedz7nzNhSVInbYLQx-i-1" target="8Ikhulkjswf7_qyzr0R4-1">
          <mxGeometry width="160" relative="1" as="geometry">
            <mxPoint x="140" y="90" as="sourcePoint" />
            <mxPoint x="300" y="90" as="targetPoint" />
            <Array as="points">
              <mxPoint x="80" y="120" />
              <mxPoint x="160" y="120" />
              <mxPoint x="405" y="120" />
            </Array>
          </mxGeometry>
        </mxCell>
        <mxCell id="oedz7nzNhSVInbYLQx-i-5" value="" style="endArrow=block;dashed=1;endFill=0;endSize=12;html=1;rounded=0;exitX=0.5;exitY=0;exitDx=0;exitDy=0;entryX=0.5;entryY=1;entryDx=0;entryDy=0;" edge="1" parent="1" source="oedz7nzNhSVInbYLQx-i-2" target="8Ikhulkjswf7_qyzr0R4-1">
          <mxGeometry width="160" relative="1" as="geometry">
            <mxPoint x="370" y="200" as="sourcePoint" />
            <mxPoint x="530" y="200" as="targetPoint" />
            <Array as="points">
              <mxPoint x="420" y="120" />
              <mxPoint x="405" y="120" />
            </Array>
          </mxGeometry>
        </mxCell>
        <mxCell id="oedz7nzNhSVInbYLQx-i-6" value="" style="endArrow=block;dashed=1;endFill=0;endSize=12;html=1;rounded=0;exitX=0.5;exitY=0;exitDx=0;exitDy=0;entryX=0.5;entryY=1;entryDx=0;entryDy=0;" edge="1" parent="1" source="oedz7nzNhSVInbYLQx-i-3" target="8Ikhulkjswf7_qyzr0R4-1">
          <mxGeometry width="160" relative="1" as="geometry">
            <mxPoint x="610" y="200" as="sourcePoint" />
            <mxPoint x="490" y="110" as="targetPoint" />
            <Array as="points">
              <mxPoint x="640" y="120" />
              <mxPoint x="405" y="120" />
            </Array>
          </mxGeometry>
        </mxCell>
        <mxCell id="oedz7nzNhSVInbYLQx-i-8" value="CodeGenerator" style="swimlane;fontStyle=0;childLayout=stackLayout;horizontal=1;startSize=26;fillColor=none;horizontalStack=0;resizeParent=1;resizeParentMax=0;resizeLast=0;collapsible=1;marginBottom=0;whiteSpace=wrap;html=1;" vertex="1" parent="1">
          <mxGeometry x="670" y="390" width="140" height="30" as="geometry" />
        </mxCell>
        <mxCell id="oedz7nzNhSVInbYLQx-i-12" value="" style="endArrow=diamondThin;endFill=0;endSize=24;html=1;rounded=0;entryX=0.5;entryY=1;entryDx=0;entryDy=0;exitX=0.5;exitY=0;exitDx=0;exitDy=0;" edge="1" parent="1" source="oedz7nzNhSVInbYLQx-i-8" target="M5KRURvyMSgcRtwDd2iS-1">
          <mxGeometry width="160" relative="1" as="geometry">
            <mxPoint x="630" y="340" as="sourcePoint" />
            <mxPoint x="790" y="340" as="targetPoint" />
          </mxGeometry>
        </mxCell>
        <mxCell id="oedz7nzNhSVInbYLQx-i-14" value="" style="endArrow=diamondThin;endFill=0;endSize=24;html=1;rounded=0;entryX=0.5;entryY=1;entryDx=0;entryDy=0;exitX=0.5;exitY=0;exitDx=0;exitDy=0;" edge="1" parent="1" source="oedz7nzNhSVInbYLQx-i-8" target="8Ikhulkjswf7_qyzr0R4-2">
          <mxGeometry width="160" relative="1" as="geometry">
            <mxPoint x="690" y="350" as="sourcePoint" />
            <mxPoint x="750" y="190" as="targetPoint" />
            <Array as="points">
              <mxPoint x="740" y="330" />
              <mxPoint x="520" y="330" />
            </Array>
          </mxGeometry>
        </mxCell>
        <mxCell id="oedz7nzNhSVInbYLQx-i-15" value="" style="endArrow=diamondThin;endFill=0;endSize=24;html=1;rounded=0;entryX=0.5;entryY=1;entryDx=0;entryDy=0;exitX=0.5;exitY=0;exitDx=0;exitDy=0;" edge="1" parent="1" source="oedz7nzNhSVInbYLQx-i-8" target="oedz7nzNhSVInbYLQx-i-3">
          <mxGeometry width="160" relative="1" as="geometry">
            <mxPoint x="760" y="410" as="sourcePoint" />
            <mxPoint x="760" y="200" as="targetPoint" />
            <Array as="points">
              <mxPoint x="740" y="330" />
              <mxPoint x="640" y="330" />
            </Array>
          </mxGeometry>
        </mxCell>
        <mxCell id="oedz7nzNhSVInbYLQx-i-17" value="1" style="edgeLabel;html=1;align=center;verticalAlign=middle;resizable=0;points=[];" vertex="1" connectable="0" parent="oedz7nzNhSVInbYLQx-i-15">
          <mxGeometry x="-0.8694" y="2" relative="1" as="geometry">
            <mxPoint x="-5" y="5" as="offset" />
          </mxGeometry>
        </mxCell>
      </root>
    </mxGraphModel>
  </diagram>
</mxfile>
